<svg width="79" height="12" viewBox="0 0 79 12" fill="none" xmlns="http://www.w3.org/2000/svg">
<g clip-path="url(#clip0_52_3935)">
<path d="M13.0479 0.30309H8.49967L4.29016 5.74285L4.29117 0.209717H0V11.6977H4.29117L4.29318 6.27791L8.4281 11.7901H13.1668L8.73858 5.83518L13.0479 0.30309Z" fill="#161616"/>
<path d="M26.1734 1.40794C25.666 0.930931 24.9661 0.577024 24.0737 0.346215C23.1813 0.115405 22.0146 0 20.5738 0C19.1505 0 17.9919 0.115405 17.0982 0.346215C16.2044 0.577024 15.5045 0.930931 14.9984 1.40794C14.4809 1.90567 14.1213 2.55556 13.9672 3.2712C13.7716 4.16578 13.6798 5.08159 13.6941 5.99895C13.6941 7.06906 13.7851 7.98286 13.9672 8.74034C14.1242 9.45248 14.4789 10.1008 14.9874 10.6046C15.4853 11.09 16.1852 11.444 17.0871 11.6664C17.9889 11.8888 19.1512 11.9996 20.5738 11.9989C22.0133 11.9989 23.1799 11.8881 24.0737 11.6664C24.9675 11.4447 25.6674 11.0907 26.1734 10.6046C26.6879 10.1038 27.0472 9.45473 27.2056 8.74034C27.4018 7.84123 27.4932 6.9208 27.4778 5.99895C27.4918 5.08166 27.4004 4.16592 27.2056 3.2712C27.0509 2.55563 26.6909 1.90587 26.1734 1.40794ZM23.4568 7.27155C23.3994 7.59728 23.2507 7.89806 23.0294 8.13603C22.7736 8.38135 22.4575 8.54804 22.1161 8.61759C21.6091 8.72768 21.0917 8.77731 20.5738 8.76551C20.0523 8.7785 19.5311 8.72886 19.0205 8.61759C18.6829 8.54645 18.3708 8.37983 18.1183 8.13603C17.8974 7.89793 17.749 7.59716 17.6919 7.27155C17.5494 6.43033 17.5494 5.56966 17.6919 4.72845C17.7472 4.40586 17.896 4.1086 18.1183 3.87655C18.3739 3.64 18.6852 3.47819 19.0205 3.40759C19.5311 3.29631 20.0523 3.24667 20.5738 3.25966C21.0917 3.24786 21.6091 3.29749 22.1161 3.40759C22.4552 3.47669 22.7704 3.63856 23.0294 3.87655C23.252 4.1085 23.4011 4.40576 23.4568 4.72845C23.5993 5.56966 23.5993 6.43033 23.4568 7.27155Z" fill="#161616"/>
<path d="M41.4329 1.40794C40.9255 0.930931 40.2256 0.577024 39.3331 0.346215C38.4407 0.115405 37.2737 0 35.8323 0C34.4089 0 33.2504 0.115405 32.3566 0.346215C31.4628 0.577024 30.7632 0.930931 30.2579 1.40794C29.7398 1.90532 29.3797 2.55531 29.2257 3.2712C29.03 4.16578 28.9383 5.08159 28.9525 5.99895C28.9525 7.06906 29.0435 7.98286 29.2257 8.74034C29.3822 9.45264 29.737 10.1011 30.2458 10.6046C30.7437 11.09 31.4437 11.444 32.3455 11.6664C33.2473 11.8888 34.4096 12 35.8323 12C37.2717 12 38.4383 11.8891 39.3321 11.6674C40.2259 11.4457 40.9258 11.0918 41.4319 10.6057C41.9464 10.1051 42.3054 9.45587 42.4631 8.74139C42.6452 7.98391 42.7362 7.07011 42.7362 6C42.7505 5.08264 42.6587 4.16683 42.4631 3.27225C42.3095 2.55636 41.9502 1.90609 41.4329 1.40794V1.40794ZM38.7162 7.27155C38.6588 7.59728 38.5101 7.89806 38.2888 8.13603C38.0332 8.38153 37.717 8.54825 37.3756 8.61759C36.3524 8.81483 35.3031 8.81483 34.2799 8.61759C33.9406 8.54736 33.6265 8.38068 33.3727 8.13603C33.1518 7.89793 33.0034 7.59716 32.9463 7.27155C32.8038 6.43033 32.8038 5.56966 32.9463 4.72845C33.0016 4.40586 33.1504 4.1086 33.3727 3.87655C33.6297 3.63918 33.9429 3.47731 34.2799 3.40759C35.3031 3.21034 36.3524 3.21034 37.3756 3.40759C37.7147 3.47645 38.03 3.63835 38.2888 3.87655C38.5114 4.1085 38.6606 4.40576 38.7162 4.72845C38.8587 5.56966 38.8587 6.43033 38.7162 7.27155Z" fill="#161616"/>
<path d="M58.0845 6.21617L62.3545 2.59351V11.721H58.0845V6.21617Z" fill="#161616"/>
<path d="M58.0845 4.90791L62.2658 1.35554V0.278076H58.0845V4.90791Z" fill="#161616"/>
<path d="M64.7627 0.291748H72.6868C73.8574 0.291748 74.8456 0.382323 75.6514 0.563474C76.4571 0.744624 77.1097 1.0202 77.609 1.39019C78.0955 1.74451 78.4676 2.24373 78.6765 2.82226C78.9026 3.48352 79.0112 4.18208 78.997 4.88381V11.7273H74.7301V5.43251C74.7301 4.87297 74.5876 4.46975 74.3026 4.22286C74.0177 3.97596 73.4801 3.85251 72.6898 3.85251H69.0357V11.7273H64.7627V0.291748Z" fill="#161616"/>
<path d="M50.741 3.27549H44.1727V0.291748H56.006V3.03104L49.4608 8.57991H53.5585L49.9094 11.7147H44.1727V8.68482L50.741 3.27549Z" fill="#161616"/>
<path d="M54.9848 8.67529H55.9988V11.7178H51.4436L54.9848 8.67529Z" fill="#161616"/>
</g>
<defs>
<clipPath id="clip0_52_3935">
<rect width="79" height="12" fill="white"/>
</clipPath>
</defs>
</svg>
