<svg width="28" height="28" viewBox="0 0 28 28" fill="none" xmlns="http://www.w3.org/2000/svg">
<path d="M5.63115 2.27098C5.86572 2.26864 6.09169 2.36004 6.2589 2.52489L9.47845 5.74444C9.61283 5.88135 9.69955 6.05772 9.72611 6.24774C9.75247 6.43778 9.71712 6.63133 9.62533 6.79969L8.40973 8.96374C8.12828 9.44714 8.01617 10.0104 8.09136 10.5645C8.16637 11.1186 8.42418 11.6319 8.82376 12.0229L16.0508 19.1564C16.4387 19.5387 16.9402 19.7844 17.4801 19.8566C18.0197 19.9289 18.5684 19.8238 19.0432 19.5572L21.194 18.3416C21.361 18.253 21.5516 18.2194 21.7389 18.2457C21.926 18.2723 22.1 18.3573 22.2359 18.4885L25.4019 21.7081C25.566 21.8733 25.658 22.0965 25.658 22.3292C25.658 22.562 25.566 22.7852 25.4019 22.9505L23.8791 24.4733C23.075 25.2764 21.9828 25.7239 20.8467 25.7157C20.1023 25.7134 19.3709 25.5202 18.7227 25.1546L18.5891 25.0878C12.4281 21.5487 7.27659 16.4898 3.62709 10.3933L2.90579 9.21765C2.41575 8.4022 2.21264 7.44635 2.32884 6.5022C2.44505 5.55805 2.87394 4.67995 3.54699 4.00765L5.01654 2.5381H5.01634C5.17806 2.3717 5.39896 2.2758 5.63099 2.27091L5.63115 2.27098ZM5.63099 1.23316e-05C4.79409 -0.00233142 3.99114 0.329502 3.39994 0.921713L1.93039 2.39126H1.93059C0.891138 3.42311 0.228438 4.77426 0.0491381 6.22776C-0.130157 7.68146 0.184293 9.15316 0.941888 10.4065L1.67664 11.6356C5.53619 18.0391 10.9726 23.3466 17.4666 27.0516L17.6135 27.1317H17.6137C18.6106 27.7008 19.7385 28.0002 20.8866 28C22.6151 27.998 24.2723 27.3111 25.4954 26.0896L27.0182 24.5668C27.6104 23.9754 27.9432 23.1728 27.9432 22.3359C27.9432 21.499 27.6104 20.6963 27.0182 20.1049L23.7987 16.8853V16.8855C23.3139 16.4084 22.6883 16.1 22.0147 16.0062C21.341 15.9123 20.6549 16.0381 20.0582 16.3644L17.9074 17.58H17.7871H17.7873C17.7226 17.582 17.6601 17.558 17.6137 17.5133L10.4267 10.3533C10.3665 10.2693 10.3665 10.1564 10.4267 10.0726L11.6423 7.92178C11.9735 7.31668 12.0979 6.61983 11.9966 5.93738C11.8952 5.25498 11.5739 4.62428 11.0811 4.14128L7.86176 0.921733C7.27056 0.329533 6.46761 -0.00226732 5.63091 3.26816e-05L5.63099 1.23316e-05Z" fill="#FEFAF1"/>
</svg>
