<svg width="392" height="275" viewBox="0 0 392 275" fill="none" xmlns="http://www.w3.org/2000/svg">
<path d="M53.5078 64.3738H16.6562V76.9373H27.0114C27.0116 80.0099 26.4879 83.0543 25.4686 85.9068C25.4686 86.1431 25.5101 86.377 25.5908 86.5953C25.6715 86.8136 25.7898 87.0119 25.939 87.179C26.0881 87.3461 26.2652 87.4786 26.46 87.569C26.6549 87.6594 26.8638 87.7059 27.0747 87.7059C32.3605 86.521 37.8035 86.521 43.0893 87.7059C43.3002 87.7059 43.5091 87.6594 43.7039 87.569C43.8988 87.4786 44.0758 87.3461 44.225 87.179C44.3741 87.0119 44.4925 86.8136 44.5732 86.5953C44.6539 86.377 44.6954 86.1431 44.6954 85.9068C43.6762 83.0542 43.1526 80.0098 43.1526 76.9373H53.5077L53.5078 64.3738Z" stroke="white" stroke-width="0.499417" stroke-miterlimit="10"/>
<path d="M96.0255 64.3738H59.1738V76.9373H69.529C69.5292 80.0099 69.0055 83.0543 67.9862 85.9068C67.9861 86.1431 68.0277 86.377 68.1084 86.5953C68.1891 86.8136 68.3074 87.0119 68.4566 87.179C68.6057 87.3461 68.7828 87.4786 68.9776 87.569C69.1725 87.6594 69.3814 87.7059 69.5923 87.7059C74.8781 86.521 80.3211 86.521 85.6069 87.7059C85.8179 87.7059 86.0267 87.6594 86.2216 87.569C86.4164 87.4786 86.5935 87.3461 86.7426 87.179C86.8918 87.0119 87.0101 86.8136 87.0908 86.5953C87.1715 86.377 87.213 86.1431 87.213 85.9068C86.1938 83.0542 85.6702 80.0098 85.6702 76.9373H96.0254L96.0255 64.3738Z" stroke="white" stroke-width="0.499417" stroke-miterlimit="10"/>
<path d="M135.716 64.3738H101.699V76.9373H111.258C111.258 80.0099 110.775 83.0543 109.834 85.9068C109.834 86.1431 109.872 86.377 109.947 86.5953C110.021 86.8136 110.13 87.0119 110.268 87.179C110.406 87.3461 110.569 87.4786 110.749 87.569C110.929 87.6594 111.122 87.7059 111.316 87.7059C116.195 86.521 121.22 86.521 126.099 87.7059C126.294 87.7059 126.486 87.6594 126.666 87.569C126.846 87.4786 127.01 87.3461 127.147 87.179C127.285 87.0119 127.394 86.8136 127.469 86.5953C127.543 86.377 127.582 86.1431 127.582 85.9068C126.641 83.0542 126.157 80.0098 126.157 76.9373H135.716L135.716 64.3738Z" stroke="white" stroke-width="0.499417" stroke-miterlimit="10"/>
<path d="M181.068 64.3738H144.217V76.9373H154.572C154.572 80.0099 154.049 83.0543 153.029 85.9068C153.029 86.1431 153.071 86.377 153.151 86.5953C153.232 86.8136 153.35 87.0119 153.5 87.179C153.649 87.3461 153.826 87.4786 154.021 87.569C154.215 87.6594 154.424 87.7059 154.635 87.7059C159.921 86.521 165.364 86.521 170.65 87.7059C170.861 87.7059 171.07 87.6594 171.265 87.569C171.459 87.4786 171.636 87.3461 171.786 87.179C171.935 87.0119 172.053 86.8136 172.134 86.5953C172.214 86.377 172.256 86.1431 172.256 85.9068C171.237 83.0542 170.713 80.0098 170.713 76.9373H181.068L181.068 64.3738Z" stroke="white" stroke-width="0.499417" stroke-miterlimit="10"/>
<path d="M220.757 64.3738H186.74V76.9373H196.299C196.299 80.0099 195.816 83.0543 194.875 85.9068C194.875 86.1431 194.913 86.377 194.987 86.5953C195.062 86.8136 195.171 87.0119 195.309 87.179C195.447 87.3461 195.61 87.4786 195.79 87.569C195.97 87.6594 196.163 87.7059 196.357 87.7059C201.236 86.521 206.261 86.521 211.14 87.7059C211.335 87.7059 211.527 87.6594 211.707 87.569C211.887 87.4786 212.051 87.3461 212.188 87.179C212.326 87.0119 212.435 86.8136 212.51 86.5953C212.584 86.377 212.622 86.1431 212.622 85.9068C211.682 83.0542 211.198 80.0098 211.198 76.9373H220.757V64.3738Z" stroke="white" stroke-width="0.499417" stroke-miterlimit="10"/>
<path d="M266.117 64.3738H229.266V76.9373H239.621C239.621 80.0099 239.097 83.0543 238.078 85.9068C238.078 86.1431 238.119 86.377 238.2 86.5953C238.281 86.8136 238.399 87.0119 238.548 87.179C238.697 87.3461 238.875 87.4786 239.069 87.569C239.264 87.6594 239.473 87.7059 239.684 87.7059C244.97 86.521 250.413 86.521 255.699 87.7059C255.91 87.7059 256.118 87.6594 256.313 87.569C256.508 87.4786 256.685 87.3461 256.834 87.179C256.984 87.0119 257.102 86.8136 257.183 86.5953C257.263 86.377 257.305 86.1431 257.305 85.9068C256.286 83.0542 255.762 80.0098 255.762 76.9373H266.117L266.117 64.3738Z" stroke="white" stroke-width="0.499417" stroke-miterlimit="10"/>
<path d="M308.633 64.3738H271.781V76.9373H282.136C282.137 80.0099 281.613 83.0543 280.594 85.9068C280.594 86.1431 280.635 86.377 280.716 86.5953C280.796 86.8136 280.915 87.0119 281.064 87.179C281.213 87.3461 281.39 87.4786 281.585 87.569C281.78 87.6594 281.989 87.7059 282.2 87.7059C287.485 86.521 292.928 86.521 298.214 87.7059C298.425 87.7059 298.634 87.6594 298.829 87.569C299.024 87.4786 299.201 87.3461 299.35 87.179C299.499 87.0119 299.617 86.8136 299.698 86.5953C299.779 86.377 299.82 86.1431 299.82 85.9068C298.801 83.0542 298.278 80.0098 298.278 76.9373H308.633L308.633 64.3738Z" stroke="white" stroke-width="0.499417" stroke-miterlimit="10"/>
<path d="M237.766 127.401L277.239 137.286L280.287 125.429L269.195 122.651C269.94 119.751 271.24 117.019 273.024 114.6C273.081 114.377 273.093 114.145 273.06 113.917C273.026 113.69 272.948 113.471 272.829 113.273C272.709 113.075 272.552 112.903 272.365 112.765C272.178 112.627 271.966 112.528 271.74 112.471C265.791 112.171 259.96 110.711 254.586 108.175C254.36 108.119 254.125 108.106 253.894 108.14C253.664 108.173 253.442 108.25 253.242 108.368C253.041 108.485 252.866 108.641 252.727 108.825C252.588 109.01 252.486 109.219 252.429 109.442C252.829 112.408 252.651 115.422 251.905 118.322L240.814 115.544L237.766 127.401Z" stroke="white" stroke-width="0.499417" stroke-miterlimit="10"/>
<path d="M200.918 118.438L235.728 125.621L237.77 114.277L227.988 112.259C228.487 109.485 229.477 106.838 230.903 104.461C230.942 104.248 230.94 104.028 230.9 103.816C230.859 103.603 230.779 103.401 230.666 103.221C230.552 103.041 230.406 102.887 230.237 102.767C230.067 102.647 229.878 102.565 229.678 102.524C224.493 102.563 219.351 101.502 214.551 99.402C214.352 99.3609 214.147 99.3621 213.948 99.4058C213.749 99.4494 213.561 99.5346 213.393 99.6564C213.225 99.7781 213.081 99.9342 212.969 100.116C212.857 100.297 212.78 100.5 212.741 100.713C213.241 103.488 213.24 106.338 212.741 109.113L202.96 107.094L200.918 118.438Z" stroke="white" stroke-width="0.499417" stroke-miterlimit="10"/>
<path d="M158.393 111.078L196.365 116.871L198.079 104.984L187.409 103.356C187.828 100.449 188.783 97.6514 190.222 95.1128C190.255 94.8893 190.244 94.6614 190.19 94.4422C190.137 94.223 190.042 94.0167 189.911 93.8352C189.78 93.6537 189.616 93.5005 189.428 93.3843C189.239 93.2682 189.03 93.1913 188.813 93.1581C183.205 93.4482 177.596 92.5926 172.311 90.6407C172.094 90.6075 171.872 90.6187 171.659 90.6736C171.446 90.7285 171.246 90.826 171.069 90.9607C170.893 91.0953 170.744 91.2644 170.631 91.4582C170.518 91.6521 170.443 91.8669 170.411 92.0904C171.072 94.9495 171.196 97.9121 170.777 100.819L160.107 99.1913L158.393 111.078Z" stroke="white" stroke-width="0.499417" stroke-miterlimit="10"/>
<path d="M118.707 104.465L154.3 108.121L155.559 98.5453L145.557 97.5179C145.865 95.1759 146.676 92.9075 147.946 90.8344C147.97 90.6543 147.953 90.4719 147.897 90.2975C147.841 90.1231 147.747 89.9602 147.619 89.818C147.492 89.6759 147.334 89.5573 147.155 89.4691C146.976 89.3808 146.779 89.3247 146.575 89.3037C141.351 89.6824 136.094 89.1423 131.107 87.7148C130.904 87.6939 130.697 87.7086 130.5 87.7582C130.303 87.8077 130.119 87.8912 129.958 88.0037C129.797 88.1163 129.663 88.2557 129.563 88.4141C129.463 88.5725 129.4 88.7467 129.376 88.9268C130.074 91.2021 130.275 93.5745 129.967 95.9164L119.966 94.8889L118.707 104.465Z" stroke="white" stroke-width="0.499417" stroke-miterlimit="10"/>
<path d="M79.0215 100.545L115.205 102.288L115.873 93.5401L105.706 93.0504C105.869 90.9109 106.545 88.8158 107.697 86.8777C107.71 86.7132 107.681 86.5484 107.614 86.3925C107.546 86.2367 107.44 86.093 107.303 85.9696C107.165 85.8462 106.998 85.7455 106.812 85.6734C106.625 85.6012 106.423 85.559 106.216 85.549C100.963 86.124 95.6183 85.8666 90.4912 84.7916C90.2841 84.7816 90.0766 84.8041 89.8805 84.8579C89.6843 84.9116 89.5034 84.9955 89.3481 85.1048C89.1928 85.2141 89.066 85.3466 88.9752 85.4948C88.8843 85.6429 88.8311 85.8039 88.8186 85.9684C89.6677 88.003 90.02 90.1476 89.8567 92.2871L79.6892 91.7973L79.0215 100.545Z" stroke="white" stroke-width="0.499417" stroke-miterlimit="10"/>
<path d="M39.334 102.288H70.5161V92.8657H61.7541C61.7539 90.5613 62.197 88.278 63.0595 86.1386C63.0595 85.9614 63.0244 85.7859 62.9561 85.6222C62.8878 85.4585 62.7877 85.3098 62.6615 85.1845C62.5353 85.0592 62.3855 84.9598 62.2206 84.892C62.0557 84.8242 61.879 84.7893 61.7005 84.7893C57.2279 85.6779 52.6223 85.6779 48.1497 84.7893C47.9712 84.7893 47.7945 84.8242 47.6296 84.892C47.4647 84.9598 47.3149 85.0592 47.1887 85.1845C47.0625 85.3098 46.9624 85.4585 46.8941 85.6222C46.8258 85.7859 46.7907 85.9614 46.7907 86.1386C47.6531 88.2781 48.0961 90.5613 48.0961 92.8657H39.3341L39.334 102.288Z" stroke="white" stroke-width="0.499417" stroke-miterlimit="10"/>
<path d="M21.5083 92.8657C21.508 90.5613 22.1227 88.278 23.3194 86.1386C23.3195 85.9614 23.2706 85.7859 23.1759 85.6222C23.0812 85.4585 22.9423 85.3098 22.7672 85.1845C22.5921 85.0592 22.3843 84.9598 22.1555 84.892C21.9267 84.8242 21.6816 84.7893 21.4339 84.7893C19.8543 85.015 18.2597 85.1835 16.6562 85.2941V102.288H33.6647V92.8658L21.5083 92.8657Z" stroke="white" stroke-width="0.499417" stroke-miterlimit="10"/>
<path d="M296.442 128.758C297.171 126.209 297.37 123.554 297.028 120.935C297.084 120.739 297.181 120.556 297.314 120.394C297.446 120.233 297.611 120.098 297.8 119.996C297.989 119.894 298.197 119.828 298.413 119.801C298.629 119.775 298.849 119.788 299.059 119.84C300.332 120.422 301.635 120.944 302.964 121.404L297.591 140.203L283.121 136.622L286.1 126.199L296.442 128.758Z" stroke="white" stroke-width="0.499417" stroke-miterlimit="10"/>
<g filter="url(#filter0_d_935_10522)">
<path d="M9.0027 29.58C9.0027 27.7582 9.32501 25.9784 9.96965 24.2407C10.6143 22.475 11.5532 20.8774 12.7864 19.448C14.0477 17.9906 15.5752 16.8414 17.3689 16.0006C19.1627 15.1318 21.1947 14.6973 23.4649 14.6973C26.1556 14.6973 28.4818 15.3139 30.4438 16.5472C32.4057 17.7523 33.8631 19.3079 34.8161 21.2137L31.1164 23.6942C30.5559 22.489 29.8412 21.5361 28.9723 20.8354C28.1315 20.1347 27.2066 19.6442 26.1976 19.3639C25.2166 19.0836 24.2497 18.9435 23.2967 18.9435C21.7272 18.9435 20.3539 19.2658 19.1767 19.9105C17.9995 20.5271 17.0046 21.3539 16.1918 22.3909C15.407 23.4279 14.8044 24.5911 14.384 25.8803C13.9916 27.1696 13.7954 28.4589 13.7954 29.7481C13.7954 31.1775 14.0336 32.5649 14.5101 33.9102C14.9866 35.2275 15.6452 36.4047 16.4861 37.4417C17.3549 38.4507 18.3779 39.2495 19.5551 39.838C20.7322 40.4266 22.0215 40.7209 23.4229 40.7209C24.3758 40.7209 25.3708 40.5528 26.4078 40.2164C27.4448 39.8801 28.3978 39.3616 29.2666 38.6609C30.1635 37.9322 30.8642 36.9792 31.3687 35.8021L35.2785 38.0303C34.6619 39.5157 33.695 40.777 32.3777 41.814C31.0884 42.851 29.631 43.6358 28.0054 44.1683C26.4078 44.7008 24.8243 44.9671 23.2547 44.9671C21.1526 44.9671 19.2328 44.5327 17.495 43.6638C15.7573 42.7669 14.2579 41.5898 12.9966 40.1323C11.7354 38.6469 10.7544 36.9933 10.0537 35.1715C9.35304 33.3216 9.0027 31.4578 9.0027 29.58ZM42.9971 44.7148V26.5109H36.9851V22.7272H47.5375V29.9583H52.8347C55.4413 29.9583 57.4172 30.617 58.7626 31.9343C60.1079 33.2516 60.7805 34.9893 60.7805 37.1474C60.7805 38.6048 60.4862 39.9081 59.8977 41.0572C59.3371 42.2064 58.4823 43.1033 57.3331 43.7479C56.184 44.3925 54.7686 44.7148 53.087 44.7148H42.9971ZM47.5375 41.1413H52.4143C53.3112 41.1413 54.0399 40.9732 54.6005 40.6368C55.161 40.2725 55.5814 39.796 55.8617 39.2074C56.142 38.5908 56.2821 37.9322 56.2821 37.2315C56.2821 36.5308 56.156 35.9002 55.9037 35.3396C55.6515 34.751 55.2311 34.2886 54.6425 33.9523C54.0819 33.5879 53.3112 33.4057 52.3302 33.4057H47.5375V41.1413ZM74.5458 45.1353C72.8361 45.1353 71.2806 44.841 69.8792 44.2524C68.5058 43.6358 67.3147 42.809 66.3057 41.772C65.2967 40.7069 64.5119 39.5017 63.9514 38.1564C63.4188 36.783 63.1526 35.3256 63.1526 33.7841C63.1526 31.7101 63.6291 29.8182 64.582 28.1085C65.5349 26.3708 66.8662 24.9834 68.5759 23.9464C70.2856 22.8814 72.2896 22.3489 74.5878 22.3489C76.8861 22.3489 78.862 22.8814 80.5157 23.9464C82.1973 24.9834 83.5006 26.3568 84.4255 28.0665C85.3504 29.7762 85.8129 31.612 85.8129 33.5739C85.8129 33.9102 85.7988 34.2325 85.7708 34.5408C85.7428 34.8211 85.7148 35.0594 85.6867 35.2555H68.0714C68.1555 36.5448 68.5058 37.6799 69.1225 38.6609C69.7671 39.6138 70.5799 40.3706 71.5609 40.9311C72.5418 41.4636 73.5928 41.7299 74.714 41.7299C75.9472 41.7299 77.1103 41.4216 78.2034 40.805C79.3245 40.1884 80.0812 39.3756 80.4736 38.3666L84.4255 39.5017C83.949 40.5668 83.2203 41.5337 82.2393 42.4026C81.2864 43.2434 80.1513 43.9161 78.834 44.4206C77.5167 44.897 76.0873 45.1353 74.5458 45.1353ZM67.9453 32.1865H81.2304C81.1463 30.9253 80.7819 29.8182 80.1373 28.8653C79.5207 27.8843 78.7219 27.1276 77.7409 26.595C76.788 26.0345 75.7229 25.7542 74.5458 25.7542C73.3967 25.7542 72.3316 26.0345 71.3506 26.595C70.3977 27.1276 69.6129 27.8843 68.9963 28.8653C68.3797 29.8182 68.0294 30.9253 67.9453 32.1865ZM68.7861 18.8174V14.1928H72.6539V18.8174H68.7861ZM76.2274 18.8174V14.1928H80.0952V18.8174H76.2274ZM89.5851 44.7148V22.7272H94.3778L101.945 36.3066L109.555 22.7272H114.263V44.7148H109.849V29.2436L103.375 40.805H100.474L93.9574 29.2436V44.7148H89.5851ZM119.802 44.7148V22.7272H124.427V31.4718H134.643V22.7272H139.267V44.7148H134.643V35.4658H124.427V44.7148H119.802ZM144.846 44.7148V22.7272H149.471V29.9583H153.633C156.24 29.9583 158.23 30.617 159.603 31.9343C160.976 33.2516 161.663 34.9893 161.663 37.1474C161.663 38.6048 161.369 39.9081 160.78 41.0572C160.192 42.2064 159.323 43.1033 158.174 43.7479C157.052 44.3925 155.651 44.7148 153.969 44.7148H144.846ZM149.471 41.1413H153.255C154.18 41.1413 154.922 40.9732 155.483 40.6368C156.043 40.2725 156.45 39.796 156.702 39.2074C156.982 38.5908 157.123 37.9322 157.123 37.2315C157.123 36.5308 156.996 35.9002 156.744 35.3396C156.492 34.751 156.071 34.2886 155.483 33.9523C154.922 33.5879 154.166 33.4057 153.213 33.4057H149.471V41.1413ZM165.279 44.7148V22.7693H169.903V44.7148H165.279ZM175.474 44.7148V22.7693H180.099V38.5348L191.24 22.7272H195.444V44.7148H190.819V29.2857L179.804 44.7148H175.474ZM185.48 20.457C183.406 20.457 181.794 19.9385 180.645 18.9015C179.524 17.8644 178.964 16.5612 178.964 14.9916H181.991C181.991 15.8044 182.257 16.4771 182.789 17.0096C183.35 17.5421 184.247 17.8084 185.48 17.8084C186.685 17.8084 187.54 17.5561 188.045 17.0516C188.577 16.5472 188.899 15.8605 189.012 14.9916H192.038C192.038 16.5612 191.464 17.8644 190.315 18.9015C189.194 19.9385 187.582 20.457 185.48 20.457ZM211.357 44.7148V22.7272H215.94V31.4298H218.126L224.6 22.7272H229.729L221.699 33.3637L230.654 44.7148H225.315L218.084 35.5919H215.94V44.7148H211.357ZM232.505 38.2825C232.505 36.8811 232.897 35.6619 233.682 34.6249C234.495 33.5599 235.602 32.7471 237.003 32.1865C238.404 31.5979 240.03 31.3037 241.88 31.3037C242.861 31.3037 243.856 31.3737 244.865 31.5139C245.902 31.654 246.813 31.8782 247.597 32.1865V30.7992C247.597 29.2576 247.135 28.0525 246.21 27.1836C245.285 26.3148 243.954 25.8803 242.216 25.8803C240.983 25.8803 239.82 26.1045 238.727 26.553C237.634 26.9734 236.47 27.576 235.237 28.3608L233.682 25.2497C235.139 24.2687 236.597 23.54 238.054 23.0636C239.539 22.5871 241.095 22.3489 242.721 22.3489C245.664 22.3489 247.976 23.1336 249.657 24.7032C251.367 26.2447 252.222 28.4448 252.222 31.3037V39.5017C252.222 40.0342 252.306 40.4126 252.474 40.6368C252.67 40.8611 252.993 40.9872 253.441 41.0152V44.7148C253.021 44.7989 252.642 44.855 252.306 44.883C251.97 44.911 251.689 44.9251 251.465 44.9251C250.484 44.9251 249.742 44.6868 249.237 44.2103C248.733 43.7339 248.438 43.1733 248.354 42.5287L248.228 41.2675C247.275 42.5007 246.056 43.4536 244.57 44.1263C243.085 44.7989 241.586 45.1353 240.072 45.1353C238.615 45.1353 237.311 44.841 236.162 44.2524C235.013 43.6358 234.116 42.809 233.472 41.772C232.827 40.7349 232.505 39.5718 232.505 38.2825ZM246.504 39.6278C246.841 39.2635 247.107 38.8991 247.303 38.5348C247.499 38.1704 247.597 37.8481 247.597 37.5678V35.0453C246.813 34.737 245.986 34.5128 245.117 34.3727C244.248 34.2045 243.393 34.1204 242.552 34.1204C240.871 34.1204 239.497 34.4568 238.432 35.1294C237.395 35.8021 236.877 36.727 236.877 37.9041C236.877 38.5488 237.045 39.1654 237.381 39.754C237.746 40.3425 238.25 40.819 238.895 41.1834C239.568 41.5477 240.394 41.7299 241.375 41.7299C242.384 41.7299 243.351 41.5337 244.276 41.1413C245.201 40.7489 245.944 40.2444 246.504 39.6278ZM270.319 45.1353C268.553 45.1353 266.998 44.7148 265.652 43.874C264.307 43.0332 263.242 41.9401 262.457 40.5948V53.6696H257.833V22.7272H261.911V26.6791C262.751 25.3618 263.844 24.3108 265.19 23.526C266.535 22.7412 268.035 22.3489 269.688 22.3489C271.202 22.3489 272.589 22.6572 273.85 23.2738C275.111 23.8623 276.205 24.6892 277.129 25.7542C278.054 26.8193 278.769 28.0384 279.274 29.4118C279.806 30.7571 280.072 32.1865 280.072 33.7C280.072 35.8021 279.652 37.722 278.811 39.4597C277.998 41.1974 276.849 42.5847 275.364 43.6218C273.906 44.6308 272.225 45.1353 270.319 45.1353ZM268.805 41.1834C269.786 41.1834 270.669 40.9732 271.454 40.5528C272.267 40.1323 272.953 39.5718 273.514 38.8711C274.103 38.1704 274.551 37.3716 274.859 36.4747C275.168 35.5779 275.322 34.653 275.322 33.7C275.322 32.691 275.154 31.7381 274.817 30.8412C274.481 29.9443 273.99 29.1596 273.346 28.4869C272.729 27.8142 272 27.2817 271.16 26.8893C270.347 26.4969 269.45 26.3007 268.469 26.3007C267.88 26.3007 267.264 26.4129 266.619 26.6371C265.975 26.8613 265.372 27.1696 264.811 27.562C264.251 27.9544 263.76 28.4168 263.34 28.9493C262.92 29.4819 262.625 30.0424 262.457 30.631V36.3907C262.849 37.2875 263.368 38.1003 264.013 38.8291C264.657 39.5297 265.4 40.1043 266.241 40.5528C267.082 40.9732 267.936 41.1834 268.805 41.1834ZM284.232 44.7148V22.7272H289.024L296.592 36.3066L304.201 22.7272H308.91V44.7148H304.495V29.2436L298.021 40.805H295.12L288.604 29.2436V44.7148H284.232ZM312.851 38.2825C312.851 36.8811 313.244 35.6619 314.028 34.6249C314.841 33.5599 315.948 32.7471 317.35 32.1865C318.751 31.5979 320.377 31.3037 322.226 31.3037C323.207 31.3037 324.202 31.3737 325.211 31.5139C326.248 31.654 327.159 31.8782 327.944 32.1865V30.7992C327.944 29.2576 327.482 28.0525 326.557 27.1836C325.632 26.3148 324.3 25.8803 322.563 25.8803C321.329 25.8803 320.166 26.1045 319.073 26.553C317.98 26.9734 316.817 27.576 315.584 28.3608L314.028 25.2497C315.486 24.2687 316.943 23.54 318.401 23.0636C319.886 22.5871 321.442 22.3489 323.067 22.3489C326.01 22.3489 328.322 23.1336 330.004 24.7032C331.714 26.2447 332.569 28.4448 332.569 31.3037V39.5017C332.569 40.0342 332.653 40.4126 332.821 40.6368C333.017 40.8611 333.339 40.9872 333.788 41.0152V44.7148C333.367 44.7989 332.989 44.855 332.653 44.883C332.316 44.911 332.036 44.9251 331.812 44.9251C330.831 44.9251 330.088 44.6868 329.584 44.2103C329.079 43.7339 328.785 43.1733 328.701 42.5287L328.575 41.2675C327.622 42.5007 326.402 43.4536 324.917 44.1263C323.432 44.7989 321.932 45.1353 320.419 45.1353C318.961 45.1353 317.658 44.841 316.509 44.2524C315.36 43.6358 314.463 42.809 313.818 41.772C313.173 40.7349 312.851 39.5718 312.851 38.2825ZM326.851 39.6278C327.187 39.2635 327.453 38.8991 327.65 38.5348C327.846 38.1704 327.944 37.8481 327.944 37.5678V35.0453C327.159 34.737 326.332 34.5128 325.464 34.3727C324.595 34.2045 323.74 34.1204 322.899 34.1204C321.217 34.1204 319.844 34.4568 318.779 35.1294C317.742 35.8021 317.223 36.727 317.223 37.9041C317.223 38.5488 317.392 39.1654 317.728 39.754C318.092 40.3425 318.597 40.819 319.241 41.1834C319.914 41.5477 320.741 41.7299 321.722 41.7299C322.731 41.7299 323.698 41.5337 324.623 41.1413C325.548 40.7489 326.29 40.2444 326.851 39.6278ZM338.179 44.7148V22.7272H342.804V31.4718H353.02V22.7272H357.644V44.7148H353.02V35.4658H342.804V44.7148H338.179Z" fill="white"/>
</g>
<g filter="url(#filter1_d_935_10522)">
<path d="M20.3356 141.306L18.8769 122.417L22.0674 122.17L23.1957 136.781L32.6511 121.316L35.5515 121.092L37.013 140.018L33.8226 140.264L32.7166 125.943L23.3811 141.07L20.3356 141.306Z" fill="white"/>
</g>
<g filter="url(#filter2_d_935_10522)">
<path d="M52.0211 139.807L52.5517 120.833L55.7504 120.922L55.5319 128.737L57.6401 128.796L63.8199 121.148L67.4548 121.249L60.1096 130.248L67.7602 140.247L64.0526 140.143L57.5578 131.74L55.4495 131.682L55.2198 139.896L52.0211 139.807Z" fill="white"/>
</g>
<g filter="url(#filter3_d_935_10522)">
<path d="M71.4933 134.872C71.5867 133.663 72.0053 132.65 72.7493 131.832C73.5193 130.992 74.5272 130.377 75.7731 129.987C77.0189 129.597 78.4395 129.464 80.0347 129.587C80.8807 129.652 81.7694 129.794 82.7008 130.012C83.6341 130.205 84.453 130.463 85.1576 130.785L85.264 129.407C85.376 127.957 85.0287 126.787 84.2221 125.898C83.4173 124.985 82.2173 124.467 80.6221 124.344C79.5828 124.264 78.5648 124.379 77.5681 124.691C76.5974 124.981 75.5533 125.435 74.4357 126.054L73.4491 123.717C74.7472 122.966 76.0284 122.433 77.2928 122.117C78.5591 121.777 79.8569 121.659 81.1863 121.761C83.6033 121.948 85.4604 122.772 86.7578 124.234C88.0569 125.672 88.6141 127.587 88.4293 129.98L87.8103 137.992C87.7805 138.379 87.8306 138.675 87.9606 138.879C88.1168 139.062 88.3752 139.179 88.7359 139.231L88.5454 141.696C88.2275 141.72 87.9467 141.735 87.7031 141.741C87.4837 141.748 87.3015 141.746 87.1565 141.735C86.4072 141.677 85.8551 141.428 85.5001 140.987C85.1693 140.548 84.9975 140.097 84.9846 139.634L85.0045 138.432C84.1006 139.432 82.9615 140.171 81.5874 140.648C80.2132 141.126 78.8735 141.314 77.5683 141.213C76.3115 141.116 75.2072 140.775 74.2554 140.191C73.3055 139.583 72.5862 138.822 72.0975 137.909C71.6107 136.972 71.4093 135.96 71.4933 134.872ZM83.7164 137.166C84.0326 136.85 84.2884 136.529 84.4837 136.204C84.6809 135.854 84.7888 135.559 84.8075 135.317L84.9896 132.96C84.2627 132.612 83.494 132.334 82.6834 132.126C81.8747 131.893 81.0715 131.746 80.2739 131.684C78.6545 131.559 77.312 131.784 76.2464 132.358C75.2069 132.91 74.6442 133.742 74.5583 134.853C74.5117 135.458 74.623 136.062 74.8924 136.666C75.1879 137.248 75.6358 137.745 76.2362 138.156C76.8608 138.569 77.6444 138.812 78.587 138.885C79.578 138.961 80.5356 138.841 81.4598 138.523C82.3858 138.181 83.138 137.729 83.7164 137.166Z" fill="white"/>
</g>
<g filter="url(#filter4_d_935_10522)">
<path d="M95.3915 142.328L97.7574 123.494L113.38 125.457L111.014 144.29L107.839 143.891L109.851 127.872L100.579 126.707L98.5665 142.727L95.3915 142.328Z" fill="white"/>
</g>
<g filter="url(#filter5_d_935_10522)">
<path d="M132.509 148.201C130.864 147.901 129.474 147.278 128.341 146.332C127.207 145.386 126.372 144.223 125.835 142.844C125.303 141.44 125.099 139.925 125.224 138.296L121.754 137.663L120.305 145.605L117.157 145.03L120.564 126.357L123.712 126.931L122.256 134.909L125.726 135.542C126.217 133.931 126.957 132.575 127.947 131.474C128.965 130.354 130.168 129.563 131.559 129.102C132.949 128.641 134.443 128.557 136.041 128.848C137.925 129.192 139.466 129.929 140.664 131.059C141.867 132.166 142.705 133.514 143.179 135.104C143.653 136.693 143.724 138.395 143.394 140.207C143.054 142.067 142.37 143.655 141.342 144.971C140.337 146.29 139.067 147.241 137.531 147.824C136.02 148.41 134.346 148.536 132.509 148.201ZM133.005 145.482C134.174 145.696 135.254 145.585 136.245 145.149C137.236 144.714 138.076 144.03 138.764 143.096C139.456 142.138 139.926 140.979 140.174 139.62C140.435 138.189 140.397 136.913 140.059 135.791C139.75 134.651 139.195 133.711 138.393 132.974C137.615 132.24 136.665 131.771 135.544 131.567C134.424 131.362 133.368 131.478 132.376 131.913C131.413 132.329 130.598 133.018 129.929 133.98C129.261 134.942 128.8 136.115 128.548 137.498C128.291 138.905 128.306 140.177 128.591 141.313C128.901 142.454 129.432 143.389 130.186 144.118C130.969 144.827 131.908 145.282 133.005 145.482Z" fill="white"/>
</g>
<g filter="url(#filter6_d_935_10522)">
<path d="M147.436 150.645L152.203 132.271L155.301 133.075L151.237 148.738L158.488 150.619L162.552 134.956L165.684 135.769L161.62 151.432L168.836 153.304L172.9 137.641L175.997 138.445L171.23 156.818L147.436 150.645Z" fill="white"/>
</g>
<g filter="url(#filter7_d_935_10522)">
<path d="M186.127 161.987C184.773 161.527 183.627 160.869 182.689 160.012C181.759 159.133 181.036 158.132 180.521 157.01C180.015 155.864 179.734 154.655 179.68 153.382C179.627 152.109 179.81 150.853 180.231 149.614C180.661 148.351 181.284 147.232 182.103 146.256C182.921 145.279 183.876 144.503 184.968 143.927C186.068 143.327 187.251 142.974 188.516 142.867C189.812 142.744 191.138 142.913 192.492 143.373C193.823 143.825 194.954 144.491 195.884 145.371C196.822 146.227 197.544 147.228 198.051 148.373C198.589 149.503 198.885 150.705 198.938 151.978C198.992 153.251 198.805 154.518 198.376 155.781C197.954 157.02 197.334 158.128 196.516 159.104C195.698 160.081 194.739 160.869 193.639 161.468C192.547 162.044 191.353 162.394 190.056 162.516C188.791 162.624 187.481 162.447 186.127 161.987ZM183.318 150.701C182.897 151.941 182.779 153.155 182.963 154.345C183.171 155.542 183.621 156.591 184.313 157.492C185.014 158.37 185.914 158.996 187.016 159.371C188.118 159.745 189.218 159.786 190.316 159.494C191.437 159.209 192.433 158.651 193.304 157.821C194.206 156.975 194.867 155.932 195.289 154.693C195.71 153.454 195.817 152.235 195.609 151.038C195.424 149.849 194.974 148.8 194.259 147.891C193.567 146.99 192.67 146.352 191.568 145.978C190.466 145.603 189.363 145.574 188.257 145.889C187.159 146.182 186.163 146.739 185.269 147.562C184.398 148.393 183.747 149.439 183.318 150.701Z" fill="white"/>
</g>
<g filter="url(#filter8_d_935_10522)">
<path d="M199.378 166.216L206.75 148.724L209.699 149.967L206.648 157.205L215.763 161.046L218.813 153.808L221.762 155.05L214.391 172.542L211.442 171.299L214.661 163.659L205.547 159.818L202.327 167.458L199.378 166.216Z" fill="white"/>
</g>
<defs>
<filter id="filter0_d_935_10522" x="0.274787" y="5.4657" width="366.097" height="56.9311" filterUnits="userSpaceOnUse" color-interpolation-filters="sRGB">
<feFlood flood-opacity="0" result="BackgroundImageFix"/>
<feColorMatrix in="SourceAlpha" type="matrix" values="0 0 0 0 0 0 0 0 0 0 0 0 0 0 0 0 0 0 127 0" result="hardAlpha"/>
<feOffset/>
<feGaussianBlur stdDeviation="4.36358"/>
<feComposite in2="hardAlpha" operator="out"/>
<feColorMatrix type="matrix" values="0 0 0 0 0.960784 0 0 0 0 0.658823 0 0 0 0 0.211765 0 0 0 0.8 0"/>
<feBlend mode="normal" in2="BackgroundImageFix" result="effect1_dropShadow_935_10522"/>
<feBlend mode="normal" in="SourceGraphic" in2="effect1_dropShadow_935_10522" result="shape"/>
</filter>
<filter id="filter1_d_935_10522" x="7.23878" y="110.911" width="38.5021" height="40.5765" filterUnits="userSpaceOnUse" color-interpolation-filters="sRGB">
<feFlood flood-opacity="0" result="BackgroundImageFix"/>
<feColorMatrix in="SourceAlpha" type="matrix" values="0 0 0 0 0 0 0 0 0 0 0 0 0 0 0 0 0 0 127 0" result="hardAlpha"/>
<feOffset dx="-1.45453"/>
<feGaussianBlur stdDeviation="5.09085"/>
<feComposite in2="hardAlpha" operator="out"/>
<feColorMatrix type="matrix" values="0 0 0 0 0.960784 0 0 0 0 0.658824 0 0 0 0 0.211765 0 0 0 0.9 0"/>
<feBlend mode="normal" in2="BackgroundImageFix" result="effect1_dropShadow_935_10522"/>
<feBlend mode="normal" in="SourceGraphic" in2="effect1_dropShadow_935_10522" result="shape"/>
</filter>
<filter id="filter2_d_935_10522" x="40.3853" y="110.651" width="36.6329" height="39.7777" filterUnits="userSpaceOnUse" color-interpolation-filters="sRGB">
<feFlood flood-opacity="0" result="BackgroundImageFix"/>
<feColorMatrix in="SourceAlpha" type="matrix" values="0 0 0 0 0 0 0 0 0 0 0 0 0 0 0 0 0 0 127 0" result="hardAlpha"/>
<feOffset dx="-1.45453"/>
<feGaussianBlur stdDeviation="5.09085"/>
<feComposite in2="hardAlpha" operator="out"/>
<feColorMatrix type="matrix" values="0 0 0 0 0.960784 0 0 0 0 0.658824 0 0 0 0 0.211765 0 0 0 0.9 0"/>
<feBlend mode="normal" in2="BackgroundImageFix" result="effect1_dropShadow_935_10522"/>
<feBlend mode="normal" in="SourceGraphic" in2="effect1_dropShadow_935_10522" result="shape"/>
</filter>
<filter id="filter3_d_935_10522" x="59.4067" y="110.913" width="39.3536" height="41.3273" filterUnits="userSpaceOnUse" color-interpolation-filters="sRGB">
<feFlood flood-opacity="0" result="BackgroundImageFix"/>
<feColorMatrix in="SourceAlpha" type="matrix" values="0 0 0 0 0 0 0 0 0 0 0 0 0 0 0 0 0 0 127 0" result="hardAlpha"/>
<feOffset dx="-1.45453"/>
<feGaussianBlur stdDeviation="5.09085"/>
<feComposite in2="hardAlpha" operator="out"/>
<feColorMatrix type="matrix" values="0 0 0 0 0.960784 0 0 0 0 0.658824 0 0 0 0 0.211765 0 0 0 0.9 0"/>
<feBlend mode="normal" in2="BackgroundImageFix" result="effect1_dropShadow_935_10522"/>
<feBlend mode="normal" in="SourceGraphic" in2="effect1_dropShadow_935_10522" result="shape"/>
</filter>
<filter id="filter4_d_935_10522" x="83.7544" y="113.312" width="38.3517" height="41.1595" filterUnits="userSpaceOnUse" color-interpolation-filters="sRGB">
<feFlood flood-opacity="0" result="BackgroundImageFix"/>
<feColorMatrix in="SourceAlpha" type="matrix" values="0 0 0 0 0 0 0 0 0 0 0 0 0 0 0 0 0 0 127 0" result="hardAlpha"/>
<feOffset dx="-1.45453"/>
<feGaussianBlur stdDeviation="5.09085"/>
<feComposite in2="hardAlpha" operator="out"/>
<feColorMatrix type="matrix" values="0 0 0 0 0.960784 0 0 0 0 0.658824 0 0 0 0 0.211765 0 0 0 0.9 0"/>
<feBlend mode="normal" in2="BackgroundImageFix" result="effect1_dropShadow_935_10522"/>
<feBlend mode="normal" in="SourceGraphic" in2="effect1_dropShadow_935_10522" result="shape"/>
</filter>
<filter id="filter5_d_935_10522" x="105.456" y="115.853" width="48.4337" height="44.1942" filterUnits="userSpaceOnUse" color-interpolation-filters="sRGB">
<feFlood flood-opacity="0" result="BackgroundImageFix"/>
<feColorMatrix in="SourceAlpha" type="matrix" values="0 0 0 0 0 0 0 0 0 0 0 0 0 0 0 0 0 0 127 0" result="hardAlpha"/>
<feOffset dx="-1.45453"/>
<feGaussianBlur stdDeviation="5.09085"/>
<feComposite in2="hardAlpha" operator="out"/>
<feColorMatrix type="matrix" values="0 0 0 0 0.960784 0 0 0 0 0.658824 0 0 0 0 0.211765 0 0 0 0.9 0"/>
<feBlend mode="normal" in2="BackgroundImageFix" result="effect1_dropShadow_935_10522"/>
<feBlend mode="normal" in="SourceGraphic" in2="effect1_dropShadow_935_10522" result="shape"/>
</filter>
<filter id="filter6_d_935_10522" x="135.799" y="122.09" width="48.9259" height="44.91" filterUnits="userSpaceOnUse" color-interpolation-filters="sRGB">
<feFlood flood-opacity="0" result="BackgroundImageFix"/>
<feColorMatrix in="SourceAlpha" type="matrix" values="0 0 0 0 0 0 0 0 0 0 0 0 0 0 0 0 0 0 127 0" result="hardAlpha"/>
<feOffset dx="-1.45453"/>
<feGaussianBlur stdDeviation="5.09085"/>
<feComposite in2="hardAlpha" operator="out"/>
<feColorMatrix type="matrix" values="0 0 0 0 0.960784 0 0 0 0 0.658824 0 0 0 0 0.211765 0 0 0 0.9 0"/>
<feBlend mode="normal" in2="BackgroundImageFix" result="effect1_dropShadow_935_10522"/>
<feBlend mode="normal" in="SourceGraphic" in2="effect1_dropShadow_935_10522" result="shape"/>
</filter>
<filter id="filter7_d_935_10522" x="165.436" y="130.102" width="44.838" height="45.1561" filterUnits="userSpaceOnUse" color-interpolation-filters="sRGB">
<feFlood flood-opacity="0" result="BackgroundImageFix"/>
<feColorMatrix in="SourceAlpha" type="matrix" values="0 0 0 0 0 0 0 0 0 0 0 0 0 0 0 0 0 0 127 0" result="hardAlpha"/>
<feOffset dx="-1.45453"/>
<feGaussianBlur stdDeviation="5.09085"/>
<feComposite in2="hardAlpha" operator="out"/>
<feColorMatrix type="matrix" values="0 0 0 0 0.960784 0 0 0 0 0.658824 0 0 0 0 0.211765 0 0 0 0.9 0"/>
<feBlend mode="normal" in2="BackgroundImageFix" result="effect1_dropShadow_935_10522"/>
<feBlend mode="normal" in="SourceGraphic" in2="effect1_dropShadow_935_10522" result="shape"/>
</filter>
<filter id="filter8_d_935_10522" x="187.743" y="138.542" width="42.7462" height="44.1815" filterUnits="userSpaceOnUse" color-interpolation-filters="sRGB">
<feFlood flood-opacity="0" result="BackgroundImageFix"/>
<feColorMatrix in="SourceAlpha" type="matrix" values="0 0 0 0 0 0 0 0 0 0 0 0 0 0 0 0 0 0 127 0" result="hardAlpha"/>
<feOffset dx="-1.45453"/>
<feGaussianBlur stdDeviation="5.09085"/>
<feComposite in2="hardAlpha" operator="out"/>
<feColorMatrix type="matrix" values="0 0 0 0 0.960784 0 0 0 0 0.658824 0 0 0 0 0.211765 0 0 0 0.9 0"/>
<feBlend mode="normal" in2="BackgroundImageFix" result="effect1_dropShadow_935_10522"/>
<feBlend mode="normal" in="SourceGraphic" in2="effect1_dropShadow_935_10522" result="shape"/>
</filter>
</defs>
</svg>
