<svg width="125" height="152" viewBox="0 0 125 152" fill="none" xmlns="http://www.w3.org/2000/svg">
<g filter="url(#filter0_d_1318_10466)">
<path d="M8.26825 89.4948L8.25558 80.6644L9.74709 80.6622L9.7569 87.4927L14.6962 80.6382L16.0521 80.6362L16.0648 89.4836L14.5733 89.4858L14.5637 82.7909L9.69197 89.4928L8.26825 89.4948Z" fill="white"/>
</g>
<g filter="url(#filter1_d_1318_10466)">
<path d="M22.9983 89.9123L23.9132 81.1123L25.3967 81.2666L25.0199 84.8911L25.9977 84.9927L29.1393 81.6557L30.8251 81.8309L27.0943 85.7543L30.2979 90.6712L28.5784 90.4925L25.8557 86.3583L24.878 86.2566L24.4819 90.0666L22.9983 89.9123Z" fill="white"/>
</g>
<g filter="url(#filter2_d_1318_10466)">
<path d="M32.1957 88.3013C32.2816 87.7429 32.5119 87.2868 32.8865 86.9329C33.274 86.5695 33.7641 86.3191 34.3569 86.1817C34.9496 86.0443 35.6146 86.0323 36.3516 86.1458C36.7425 86.206 37.1506 86.3031 37.5758 86.4371C38.0028 86.56 38.3743 86.7087 38.6904 86.8831L38.7884 86.2465C38.8915 85.5764 38.7713 85.0206 38.4277 84.579C38.0858 84.1263 37.5464 83.8431 36.8093 83.7297C36.3291 83.6558 35.8519 83.6738 35.3776 83.7837C34.9163 83.8842 34.415 84.0585 33.8738 84.3067L33.4976 83.1856C34.1273 82.8824 34.7416 82.6797 35.3404 82.5775C35.9409 82.4642 36.5482 82.4548 37.1625 82.5493C38.2793 82.7212 39.1134 83.1698 39.6649 83.8949C40.218 84.6088 40.4095 85.5186 40.2394 86.6242L39.6695 90.3263C39.642 90.505 39.6549 90.6442 39.7081 90.7438C39.7742 90.8341 39.8902 90.8976 40.056 90.9346L39.8807 92.0737C39.7321 92.0737 39.601 92.0707 39.4876 92.0647C39.3854 92.0604 39.3008 92.053 39.2338 92.0427C38.8876 91.9894 38.6398 91.8541 38.4903 91.6368C38.352 91.4211 38.288 91.2055 38.2983 90.9899L38.3499 90.4319C37.8946 90.8648 37.3392 91.168 36.6837 91.3415C36.0282 91.515 35.3989 91.5553 34.7958 91.4625C34.2151 91.3731 33.7139 91.1759 33.2921 90.8709C32.872 90.5547 32.5645 90.1759 32.3695 89.7343C32.1763 89.2815 32.1183 88.8039 32.1957 88.3013ZM37.7959 89.7979C37.954 89.6621 38.0841 89.5221 38.1864 89.3778C38.2903 89.2223 38.3509 89.0887 38.3681 88.977L38.5357 87.8882C38.2101 87.7009 37.8626 87.5445 37.4932 87.419C37.1256 87.2824 36.7575 87.1857 36.3889 87.129C35.6407 87.0138 35.0088 87.0709 34.4934 87.3002C33.9908 87.5201 33.7 87.8869 33.6209 88.4007C33.5779 88.6799 33.6084 88.9646 33.7123 89.255C33.8291 89.5359 34.0198 89.7825 34.2844 89.9947C34.5601 90.2087 34.9158 90.3491 35.3513 90.4162C35.8092 90.4867 36.2585 90.4644 36.6992 90.3493C37.1417 90.223 37.5072 90.0392 37.7959 89.7979Z" fill="white"/>
</g>
<g filter="url(#filter3_d_1318_10466)">
<path d="M43.0116 92.6041L44.7745 83.9341L51.9663 85.3965L50.2033 94.0665L48.7417 93.7693L50.2412 86.3948L45.9727 85.5268L44.4732 92.9013L43.0116 92.6041Z" fill="white"/>
</g>
<g filter="url(#filter4_d_1318_10466)">
<path d="M60.0274 96.6354C59.2732 96.4379 58.6493 96.0993 58.1559 95.6197C57.6624 95.1401 57.3152 94.5703 57.1143 93.9103C56.9162 93.2393 56.8748 92.5277 56.99 91.7753L55.3996 91.3588L54.4464 94.9987L53.0036 94.6209L55.2448 86.0621L56.6877 86.4399L55.7302 90.0963L57.3206 90.5127C57.6056 89.7814 57.9974 89.1773 58.496 88.7005C59.0084 88.2157 59.5958 87.8906 60.2582 87.7253C60.9205 87.56 61.6179 87.5733 62.3502 87.765C63.2138 87.9912 63.9041 88.388 64.4213 88.9556C64.9413 89.5123 65.2834 90.1684 65.4477 90.9239C65.6119 91.6794 65.5853 92.4725 65.3677 93.3033C65.1444 94.1559 64.7706 94.8698 64.2462 95.445C63.7328 96.023 63.1089 96.4203 62.3748 96.6369C61.6515 96.8563 60.8691 96.8558 60.0274 96.6354ZM60.3537 95.3893C60.8893 95.5295 61.3951 95.516 61.8711 95.3486C62.3471 95.1813 62.7614 94.8926 63.1141 94.4827C63.4696 94.0619 63.7289 93.5399 63.8921 92.9169C64.0638 92.261 64.091 91.6666 63.9736 91.1336C63.87 90.5925 63.6448 90.1364 63.2982 89.7653C62.9624 89.3971 62.5377 89.1457 62.0239 89.0112C61.5102 88.8766 61.0153 88.893 60.5393 89.0604C60.0771 89.2197 59.6737 89.5112 59.3291 89.9349C58.9846 90.3586 58.7293 90.8875 58.5633 91.5214C58.3944 92.1664 58.3563 92.7579 58.449 93.2961C58.5526 93.8372 58.7668 94.2904 59.0916 94.6558C59.4302 95.0131 59.8509 95.2576 60.3537 95.3893Z" fill="white"/>
</g>
<g filter="url(#filter5_d_1318_10466)">
<path d="M66.838 98.285L69.7007 89.9135L71.112 90.3961L68.6716 97.5327L71.9753 98.6624L74.4157 91.5258L75.843 92.0139L73.4026 99.1505L76.6902 100.275L79.1307 93.1381L80.5419 93.6207L77.6793 101.992L66.838 98.285Z" fill="white"/>
</g>
<g filter="url(#filter6_d_1318_10466)">
<path d="M84.3819 104.905C83.7687 104.644 83.2593 104.297 82.8535 103.866C82.4522 103.425 82.1517 102.934 81.952 102.394C81.7567 101.844 81.669 101.273 81.6888 100.679C81.7086 100.086 81.8383 99.5081 82.0777 98.9469C82.3216 98.3753 82.6509 97.877 83.0656 97.452C83.4804 97.027 83.9516 96.6998 84.4795 96.4704C85.0117 96.2307 85.5738 96.1081 86.1658 96.1027C86.7726 96.0913 87.3826 96.2165 87.9958 96.4781C88.5986 96.7353 89.1007 97.0846 89.502 97.5261C89.9077 97.9572 90.2082 98.4478 90.4035 98.9979C90.6136 99.5421 90.7087 100.111 90.6889 100.704C90.6691 101.298 90.5373 101.88 90.2934 102.452C90.0539 103.013 89.7268 103.506 89.3121 103.931C88.8974 104.356 88.4239 104.689 87.8916 104.929C87.3638 105.158 86.7965 105.278 86.1897 105.29C85.5977 105.295 84.9951 105.167 84.3819 104.905ZM83.4741 99.5611C83.2347 100.122 83.1369 100.683 83.1808 101.242C83.2352 101.806 83.4074 102.309 83.6974 102.752C83.9919 103.185 84.3885 103.508 84.8874 103.721C85.3863 103.933 85.896 103.991 86.4166 103.894C86.9476 103.801 87.4302 103.577 87.8644 103.222C88.3133 102.86 88.6575 102.399 88.897 101.838C89.1364 101.277 89.229 100.714 89.1746 100.151C89.1307 99.5912 88.9585 99.0878 88.6581 98.6402C88.368 98.1971 87.9736 97.8691 87.4747 97.6562C86.9759 97.4434 86.4639 97.3908 85.9389 97.4985C85.4182 97.5958 84.9357 97.8199 84.4911 98.1707C84.057 98.526 83.718 98.9895 83.4741 99.5611Z" fill="white"/>
</g>
<g filter="url(#filter7_d_1318_10466)">
<path d="M90.3619 107.324L94.4039 99.4542L95.7307 100.136L94.0581 103.392L98.159 105.498L99.8316 102.242L101.158 102.923L97.1163 110.793L95.7896 110.112L97.555 106.674L93.4541 104.568L91.6887 108.006L90.3619 107.324Z" fill="white"/>
</g>
<path d="M20.4073 57.1064H6.72095V61.6416H10.5667C10.5668 62.7507 10.3724 63.8497 9.99377 64.8794C9.99376 64.9647 10.0092 65.0491 10.0392 65.1279C10.0691 65.2067 10.1131 65.2783 10.1685 65.3386C10.2239 65.3989 10.2896 65.4468 10.362 65.4794C10.4344 65.512 10.5119 65.5288 10.5903 65.5288C12.5534 65.1011 14.5748 65.1011 16.538 65.5288C16.6163 65.5288 16.6939 65.512 16.7662 65.4794C16.8386 65.4468 16.9044 65.3989 16.9597 65.3386C17.0151 65.2783 17.0591 65.2067 17.0891 65.1279C17.119 65.0491 17.1345 64.9647 17.1344 64.8794C16.7559 63.8497 16.5615 62.7507 16.5615 61.6416H20.4073L20.4073 57.1064Z" stroke="white" stroke-width="0.82302" stroke-miterlimit="10"/>
<path d="M36.1993 57.1064H22.5129V61.6416H26.3587C26.3588 62.7507 26.1643 63.8497 25.7858 64.8794C25.7858 64.9647 25.8012 65.0491 25.8312 65.1279C25.8611 65.2067 25.9051 65.2783 25.9605 65.3386C26.0159 65.3989 26.0816 65.4468 26.154 65.4794C26.2264 65.512 26.3039 65.5288 26.3823 65.5288C28.3454 65.1011 30.3669 65.1011 32.33 65.5288C32.4083 65.5288 32.4859 65.512 32.5582 65.4794C32.6306 65.4468 32.6964 65.3989 32.7518 65.3386C32.8071 65.2783 32.8511 65.2067 32.881 65.1279C32.911 65.0491 32.9264 64.9647 32.9264 64.8794C32.5479 63.8497 32.3535 62.7507 32.3535 61.6416H36.1993L36.1993 57.1064Z" stroke="white" stroke-width="0.82302" stroke-miterlimit="10"/>
<path d="M50.9385 57.1064H38.3049V61.6416H41.8549C41.855 62.7507 41.6755 63.8497 41.326 64.8794C41.326 64.9647 41.3402 65.0491 41.3679 65.1279C41.3956 65.2067 41.4361 65.2783 41.4873 65.3386C41.5384 65.3989 41.5991 65.4468 41.6659 65.4794C41.7327 65.512 41.8043 65.5288 41.8766 65.5288C43.6887 65.1011 45.5547 65.1011 47.3668 65.5288C47.4391 65.5288 47.5107 65.512 47.5775 65.4794C47.6443 65.4468 47.705 65.3989 47.7561 65.3386C47.8073 65.2783 47.8478 65.2067 47.8755 65.1279C47.9032 65.0491 47.9174 64.9647 47.9174 64.8794C47.568 63.8497 47.3885 62.7507 47.3885 61.6416H50.9385L50.9385 57.1064Z" stroke="white" stroke-width="0.82302" stroke-miterlimit="10"/>
<path d="M67.7833 57.1064H54.0969V61.6416H57.9427C57.9428 62.7507 57.7483 63.8497 57.3698 64.8794C57.3698 64.9647 57.3852 65.0491 57.4152 65.1279C57.4451 65.2067 57.4891 65.2783 57.5444 65.3386C57.5998 65.3989 57.6656 65.4468 57.738 65.4794C57.8103 65.512 57.8879 65.5288 57.9663 65.5288C59.9294 65.1011 61.9508 65.1011 63.9139 65.5288C63.9923 65.5288 64.0698 65.512 64.1422 65.4794C64.2146 65.4468 64.2803 65.3989 64.3357 65.3386C64.3911 65.2783 64.4351 65.2067 64.465 65.1279C64.495 65.0491 64.5104 64.9647 64.5104 64.8794C64.1319 63.8497 63.9374 62.7507 63.9375 61.6416H67.7833L67.7833 57.1064Z" stroke="white" stroke-width="0.82302" stroke-miterlimit="10"/>
<path d="M82.5225 57.1064H69.8889V61.6416H73.4389C73.439 62.7507 73.2594 63.8497 72.91 64.8794C72.91 64.9647 72.9242 65.0491 72.9519 65.1279C72.9795 65.2067 73.0201 65.2783 73.0712 65.3386C73.1224 65.3989 73.1831 65.4468 73.2499 65.4794C73.3167 65.512 73.3883 65.5288 73.4606 65.5288C75.2727 65.1011 77.1387 65.1011 78.9507 65.5288C79.0231 65.5288 79.0947 65.512 79.1615 65.4794C79.2283 65.4468 79.289 65.3989 79.3401 65.3386C79.3912 65.2783 79.4318 65.2067 79.4595 65.1279C79.4871 65.0491 79.5014 64.9647 79.5014 64.8794C79.152 63.8497 78.9724 62.7507 78.9724 61.6416H82.5225V57.1064Z" stroke="white" stroke-width="0.82302" stroke-miterlimit="10"/>
<path d="M99.3673 57.1064H85.6809V61.6416H89.5267C89.5268 62.7507 89.3323 63.8497 88.9537 64.8794C88.9537 64.9647 88.9692 65.0491 88.9991 65.1279C89.0291 65.2067 89.073 65.2783 89.1284 65.3386C89.1838 65.3989 89.2496 65.4468 89.3219 65.4794C89.3943 65.512 89.4719 65.5288 89.5502 65.5288C91.5133 65.1011 93.5348 65.1011 95.4979 65.5288C95.5763 65.5288 95.6538 65.512 95.7262 65.4794C95.7986 65.4468 95.8643 65.3989 95.9197 65.3386C95.9751 65.2783 96.019 65.2067 96.049 65.1279C96.079 65.0491 96.0944 64.9647 96.0944 64.8794C95.7159 63.8497 95.5214 62.7507 95.5214 61.6416H99.3672L99.3673 57.1064Z" stroke="white" stroke-width="0.82302" stroke-miterlimit="10"/>
<path d="M115.159 57.1064H101.473V61.6416H105.318C105.319 62.7507 105.124 63.8497 104.745 64.8794C104.745 64.9647 104.761 65.0491 104.791 65.1279C104.821 65.2067 104.865 65.2783 104.92 65.3386C104.976 65.3989 105.041 65.4468 105.114 65.4794C105.186 65.512 105.264 65.5288 105.342 65.5288C107.305 65.1011 109.327 65.1011 111.29 65.5288C111.368 65.5288 111.446 65.512 111.518 65.4794C111.59 65.4468 111.656 65.3989 111.711 65.3386C111.767 65.2783 111.811 65.2067 111.841 65.1279C111.871 65.0491 111.886 64.9647 111.886 64.8794C111.508 63.8497 111.313 62.7507 111.313 61.6416H115.159L115.159 57.1064Z" stroke="white" stroke-width="0.82302" stroke-miterlimit="10"/>
<path d="M88.8391 79.8581L103.499 83.4264L104.631 79.1462L100.512 78.1435C100.788 77.0967 101.271 76.1102 101.934 75.237C101.955 75.1565 101.96 75.0728 101.947 74.9906C101.935 74.9084 101.905 74.8294 101.861 74.758C101.817 74.6867 101.758 74.6244 101.689 74.5747C101.62 74.525 101.541 74.489 101.457 74.4686C99.2473 74.3604 97.0821 73.8333 95.0861 72.9179C95.0022 72.8974 94.9149 72.8931 94.8292 72.905C94.7435 72.9169 94.6612 72.9449 94.5868 72.9874C94.5124 73.0299 94.4474 73.086 94.3957 73.1526C94.3439 73.2191 94.3063 73.2948 94.285 73.3753C94.4334 74.4459 94.3674 75.5337 94.0905 76.5805L89.9712 75.5779L88.8391 79.8581Z" stroke="white" stroke-width="0.82302" stroke-miterlimit="10"/>
<path d="M75.1528 76.622L88.0809 79.2149L88.8392 75.1202L85.2065 74.3916C85.3919 73.3901 85.7593 72.4347 86.2891 71.5768C86.3033 71.4998 86.3029 71.4206 86.2878 71.3438C86.2726 71.2669 86.2431 71.1939 86.2009 71.129C86.1586 71.0641 86.1045 71.0084 86.0416 70.9652C85.9787 70.9221 85.9082 70.8922 85.8342 70.8774C83.9084 70.8916 81.9989 70.5086 80.216 69.7506C80.142 69.7357 80.066 69.7362 79.9921 69.7519C79.9183 69.7677 79.8482 69.7984 79.7858 69.8424C79.7234 69.8863 79.6699 69.9427 79.6284 70.0081C79.5869 70.0736 79.5582 70.1469 79.544 70.2239C79.7293 71.2254 79.7293 72.2544 79.5438 73.2559L75.9111 72.5273L75.1528 76.622Z" stroke="white" stroke-width="0.82302" stroke-miterlimit="10"/>
<path d="M59.3608 73.9656L73.4634 76.0567L74.1 71.766L70.1372 71.1784C70.2929 70.129 70.6475 69.119 71.1822 68.2026C71.1942 68.1219 71.1901 68.0397 71.1703 67.9605C71.1505 67.8814 71.1152 67.8069 71.0666 67.7414C71.018 67.6759 70.957 67.6206 70.887 67.5787C70.817 67.5367 70.7394 67.509 70.6587 67.497C68.5758 67.6017 66.4929 67.2929 64.5301 66.5883C64.4494 66.5763 64.3671 66.5803 64.288 66.6001C64.2088 66.62 64.1343 66.6552 64.0688 66.7038C64.0032 66.7524 63.9479 66.8134 63.906 66.8834C63.864 66.9533 63.8363 67.0309 63.8243 67.1116C64.0698 68.1437 64.1159 69.2131 63.9602 70.2625L59.9975 69.6749L59.3608 73.9656Z" stroke="white" stroke-width="0.82302" stroke-miterlimit="10"/>
<path d="M44.6218 71.5785L57.8407 72.8984L58.3082 69.4417L54.5938 69.0708C54.708 68.2254 55.0091 67.4066 55.481 66.6582C55.4898 66.5932 55.4836 66.5274 55.4627 66.4644C55.4419 66.4015 55.4069 66.3427 55.3596 66.2914C55.3123 66.2401 55.2537 66.1972 55.1872 66.1654C55.1206 66.1335 55.0474 66.1133 54.9718 66.1057C53.0316 66.2424 51.0792 66.0475 49.2273 65.5321C49.1516 65.5246 49.0749 65.5299 49.0017 65.5478C48.9284 65.5657 48.86 65.5958 48.8002 65.6364C48.7405 65.6771 48.6907 65.7274 48.6536 65.7846C48.6165 65.8417 48.593 65.9046 48.5842 65.9696C48.8436 66.791 48.9181 67.6474 48.8038 68.4927L45.0894 68.1219L44.6218 71.5785Z" stroke="white" stroke-width="0.82302" stroke-miterlimit="10"/>
<path d="M29.8826 70.1637L43.3209 70.7929L43.5689 67.6349L39.7928 67.4582C39.8534 66.6858 40.1044 65.9296 40.5325 65.23C40.5371 65.1706 40.5266 65.1111 40.5015 65.0548C40.4764 64.9986 40.4371 64.9467 40.386 64.9021C40.3349 64.8576 40.273 64.8213 40.2037 64.7952C40.1344 64.7692 40.0592 64.7539 39.9823 64.7503C38.0313 64.9579 36.0465 64.865 34.1423 64.4769C34.0654 64.4733 33.9883 64.4814 33.9155 64.5008C33.8427 64.5202 33.7755 64.5505 33.7178 64.59C33.6601 64.6294 33.613 64.6772 33.5793 64.7307C33.5455 64.7842 33.5258 64.8423 33.5211 64.9017C33.8365 65.6361 33.9673 66.4103 33.9067 67.1826L30.1306 67.0058L29.8826 70.1637Z" stroke="white" stroke-width="0.82302" stroke-miterlimit="10"/>
<path d="M15.1436 70.7929H26.7243V67.3915H23.4702C23.4701 66.5596 23.6347 65.7354 23.955 64.9631C23.955 64.8992 23.942 64.8358 23.9166 64.7767C23.8912 64.7176 23.8541 64.6639 23.8072 64.6187C23.7603 64.5735 23.7047 64.5376 23.6434 64.5131C23.5822 64.4887 23.5166 64.4761 23.4503 64.4761C21.7892 64.7969 20.0787 64.7969 18.4176 64.4761C18.3513 64.4761 18.2857 64.4887 18.2245 64.5131C18.1632 64.5376 18.1076 64.5735 18.0607 64.6187C18.0139 64.6639 17.9767 64.7176 17.9513 64.7767C17.9259 64.8358 17.9129 64.8992 17.9129 64.9631C18.2332 65.7354 18.3977 66.5596 18.3977 67.3915H15.1436L15.1436 70.7929Z" stroke="white" stroke-width="0.82302" stroke-miterlimit="10"/>
<path d="M8.52295 67.3915C8.52285 66.5596 8.75116 65.7354 9.1956 64.9631C9.1956 64.8992 9.17748 64.8358 9.14229 64.7767C9.1071 64.7176 9.05553 64.6639 8.9905 64.6187C8.92548 64.5735 8.84828 64.5376 8.76332 64.5131C8.67836 64.4887 8.5873 64.4761 8.49534 64.4761C7.90866 64.5575 7.31644 64.6184 6.72095 64.6583V70.7929H13.0377V67.3915L8.52295 67.3915Z" stroke="white" stroke-width="0.82302" stroke-miterlimit="10"/>
<path d="M110.631 80.3476C110.902 79.4274 110.976 78.4689 110.849 77.5236C110.87 77.4529 110.906 77.3865 110.955 77.3283C111.004 77.2702 111.066 77.2213 111.136 77.1846C111.206 77.1479 111.283 77.124 111.363 77.1143C111.444 77.1046 111.525 77.1093 111.603 77.1281C112.076 77.3383 112.56 77.5268 113.054 77.6928L111.058 84.479L105.684 83.1863L106.791 79.4236L110.631 80.3476Z" stroke="white" stroke-width="0.82302" stroke-miterlimit="10"/>
<g filter="url(#filter8_d_1318_10466)">
<path d="M4.43774 14.4136C4.43774 13.3302 4.62941 12.2719 5.01274 11.2386C5.39608 10.1886 5.95441 9.23857 6.68774 8.38857C7.43774 7.52191 8.34608 6.83857 9.41274 6.33857C10.4794 5.82191 11.6877 5.56357 13.0377 5.56357C14.6377 5.56357 16.0211 5.93024 17.1877 6.66357C18.3544 7.38024 19.2211 8.30524 19.7877 9.43857L17.5877 10.9136C17.2544 10.1969 16.8294 9.63024 16.3127 9.21357C15.8127 8.79691 15.2627 8.50524 14.6627 8.33857C14.0794 8.17191 13.5044 8.08857 12.9377 8.08857C12.0044 8.08857 11.1877 8.28024 10.4877 8.66357C9.78774 9.03024 9.19608 9.52191 8.71274 10.1386C8.24608 10.7552 7.88774 11.4469 7.63774 12.2136C7.40441 12.9802 7.28774 13.7469 7.28774 14.5136C7.28774 15.3636 7.42941 16.1886 7.71274 16.9886C7.99608 17.7719 8.38774 18.4719 8.88774 19.0886C9.40441 19.6886 10.0127 20.1636 10.7127 20.5136C11.4127 20.8636 12.1794 21.0386 13.0127 21.0386C13.5794 21.0386 14.1711 20.9386 14.7877 20.7386C15.4044 20.5386 15.9711 20.2302 16.4877 19.8136C17.0211 19.3802 17.4377 18.8136 17.7377 18.1136L20.0627 19.4386C19.6961 20.3219 19.1211 21.0719 18.3377 21.6886C17.5711 22.3052 16.7044 22.7719 15.7377 23.0886C14.7877 23.4052 13.8461 23.5636 12.9127 23.5636C11.6627 23.5636 10.5211 23.3052 9.48774 22.7886C8.45441 22.2552 7.56274 21.5552 6.81274 20.6886C6.06274 19.8052 5.47941 18.8219 5.06274 17.7386C4.64608 16.6386 4.43774 15.5302 4.43774 14.4136ZM24.6526 23.4136V12.5886H21.0776V10.3386H27.3526V14.6386H30.5026C32.0526 14.6386 33.2276 15.0302 34.0276 15.8136C34.8276 16.5969 35.2276 17.6302 35.2276 18.9136C35.2276 19.7802 35.0526 20.5552 34.7026 21.2386C34.3693 21.9219 33.8609 22.4552 33.1776 22.8386C32.4943 23.2219 31.6526 23.4136 30.6526 23.4136H24.6526ZM27.3526 21.2886H30.2526C30.7859 21.2886 31.2193 21.1886 31.5526 20.9886C31.8859 20.7719 32.1359 20.4886 32.3026 20.1386C32.4693 19.7719 32.5526 19.3802 32.5526 18.9636C32.5526 18.5469 32.4776 18.1719 32.3276 17.8386C32.1776 17.4886 31.9276 17.2136 31.5776 17.0136C31.2443 16.7969 30.7859 16.6886 30.2026 16.6886H27.3526V21.2886ZM43.4131 23.6636C42.3965 23.6636 41.4715 23.4886 40.6381 23.1386C39.8215 22.7719 39.1131 22.2802 38.5131 21.6636C37.9131 21.0302 37.4465 20.3136 37.1131 19.5136C36.7965 18.6969 36.6381 17.8302 36.6381 16.9136C36.6381 15.6802 36.9215 14.5552 37.4881 13.5386C38.0548 12.5052 38.8465 11.6802 39.8631 11.0636C40.8798 10.4302 42.0715 10.1136 43.4381 10.1136C44.8048 10.1136 45.9798 10.4302 46.9631 11.0636C47.9631 11.6802 48.7381 12.4969 49.2881 13.5136C49.8381 14.5302 50.1131 15.6219 50.1131 16.7886C50.1131 16.9886 50.1048 17.1802 50.0881 17.3636C50.0715 17.5302 50.0548 17.6719 50.0381 17.7886H39.5631C39.6131 18.5552 39.8215 19.2302 40.1881 19.8136C40.5715 20.3802 41.0548 20.8302 41.6381 21.1636C42.2215 21.4802 42.8465 21.6386 43.5131 21.6386C44.2465 21.6386 44.9381 21.4552 45.5881 21.0886C46.2548 20.7219 46.7048 20.2386 46.9381 19.6386L49.2881 20.3136C49.0048 20.9469 48.5715 21.5219 47.9881 22.0386C47.4215 22.5386 46.7465 22.9386 45.9631 23.2386C45.1798 23.5219 44.3298 23.6636 43.4131 23.6636ZM39.4881 15.9636H47.3881C47.3381 15.2136 47.1215 14.5552 46.7381 13.9886C46.3715 13.4052 45.8965 12.9552 45.3131 12.6386C44.7465 12.3052 44.1131 12.1386 43.4131 12.1386C42.7298 12.1386 42.0965 12.3052 41.5131 12.6386C40.9465 12.9552 40.4798 13.4052 40.1131 13.9886C39.7465 14.5552 39.5381 15.2136 39.4881 15.9636ZM39.9881 8.01357V5.26357H42.2881V8.01357H39.9881ZM44.4131 8.01357V5.26357H46.7131V8.01357H44.4131ZM52.3563 23.4136V10.3386H55.2063L59.7063 18.4136L64.2313 10.3386H67.0313V23.4136H64.4063V14.2136L60.5563 21.0886H58.8313L54.9563 14.2136V23.4136H52.3563ZM70.325 23.4136V10.3386H73.075V15.5386H79.15V10.3386H81.9V23.4136H79.15V17.9136H73.075V23.4136H70.325ZM85.2176 23.4136V10.3386H87.9676V14.6386H90.4426C91.9926 14.6386 93.176 15.0302 93.9926 15.8136C94.8093 16.5969 95.2176 17.6302 95.2176 18.9136C95.2176 19.7802 95.0426 20.5552 94.6926 21.2386C94.3426 21.9219 93.826 22.4552 93.1426 22.8386C92.476 23.2219 91.6426 23.4136 90.6426 23.4136H85.2176ZM87.9676 21.2886H90.2176C90.7676 21.2886 91.2093 21.1886 91.5426 20.9886C91.876 20.7719 92.1176 20.4886 92.2676 20.1386C92.4343 19.7719 92.5176 19.3802 92.5176 18.9636C92.5176 18.5469 92.4426 18.1719 92.2926 17.8386C92.1426 17.4886 91.8926 17.2136 91.5426 17.0136C91.2093 16.7969 90.7593 16.6886 90.1926 16.6886H87.9676V21.2886ZM97.3676 23.4136V10.3636H100.118V23.4136H97.3676ZM103.431 23.4136V10.3636H106.181V19.7386L112.806 10.3386H115.306V23.4136H112.556V14.2386L106.006 23.4136H103.431ZM109.381 8.98857C108.147 8.98857 107.189 8.68024 106.506 8.06357C105.839 7.44691 105.506 6.67191 105.506 5.73857H107.306C107.306 6.22191 107.464 6.62191 107.781 6.93857C108.114 7.25524 108.647 7.41357 109.381 7.41357C110.097 7.41357 110.606 7.26357 110.906 6.96357C111.222 6.66357 111.414 6.25524 111.481 5.73857H113.281C113.281 6.67191 112.939 7.44691 112.256 8.06357C111.589 8.68024 110.631 8.98857 109.381 8.98857ZM5.21274 43.4136V30.3386H7.93774V35.5136H9.23774L13.0877 30.3386H16.1377L11.3627 36.6636L16.6877 43.4136H13.5127L9.21274 37.9886H7.93774V43.4136H5.21274ZM17.7881 39.5886C17.7881 38.7552 18.0215 38.0302 18.4881 37.4136C18.9715 36.7802 19.6298 36.2969 20.4631 35.9636C21.2965 35.6136 22.2631 35.4386 23.3631 35.4386C23.9465 35.4386 24.5381 35.4802 25.1381 35.5636C25.7548 35.6469 26.2965 35.7802 26.7631 35.9636V35.1386C26.7631 34.2219 26.4881 33.5052 25.9381 32.9886C25.3881 32.4719 24.5965 32.2136 23.5631 32.2136C22.8298 32.2136 22.1381 32.3469 21.4881 32.6136C20.8381 32.8636 20.1465 33.2219 19.4131 33.6886L18.4881 31.8386C19.3548 31.2552 20.2215 30.8219 21.0881 30.5386C21.9715 30.2552 22.8965 30.1136 23.8631 30.1136C25.6131 30.1136 26.9881 30.5802 27.9881 31.5136C29.0048 32.4302 29.5131 33.7386 29.5131 35.4386V40.3136C29.5131 40.6302 29.5631 40.8552 29.6631 40.9886C29.7798 41.1219 29.9715 41.1969 30.2381 41.2136V43.4136C29.9881 43.4636 29.7631 43.4969 29.5631 43.5136C29.3631 43.5302 29.1965 43.5386 29.0631 43.5386C28.4798 43.5386 28.0381 43.3969 27.7381 43.1136C27.4381 42.8302 27.2631 42.4969 27.2131 42.1136L27.1381 41.3636C26.5715 42.0969 25.8465 42.6636 24.9631 43.0636C24.0798 43.4636 23.1881 43.6636 22.2881 43.6636C21.4215 43.6636 20.6465 43.4886 19.9631 43.1386C19.2798 42.7719 18.7465 42.2802 18.3631 41.6636C17.9798 41.0469 17.7881 40.3552 17.7881 39.5886ZM26.1131 40.3886C26.3131 40.1719 26.4715 39.9552 26.5881 39.7386C26.7048 39.5219 26.7631 39.3302 26.7631 39.1636V37.6636C26.2965 37.4802 25.8048 37.3469 25.2881 37.2636C24.7715 37.1636 24.2631 37.1136 23.7631 37.1136C22.7631 37.1136 21.9465 37.3136 21.3131 37.7136C20.6965 38.1136 20.3881 38.6636 20.3881 39.3636C20.3881 39.7469 20.4881 40.1136 20.6881 40.4636C20.9048 40.8136 21.2048 41.0969 21.5881 41.3136C21.9881 41.5302 22.4798 41.6386 23.0631 41.6386C23.6631 41.6386 24.2381 41.5219 24.7881 41.2886C25.3381 41.0552 25.7798 40.7552 26.1131 40.3886ZM40.2745 43.6636C39.2245 43.6636 38.2995 43.4136 37.4995 42.9136C36.6995 42.4136 36.0661 41.7636 35.5995 40.9636V48.7386H32.8495V30.3386H35.2745V32.6886C35.7745 31.9052 36.4245 31.2802 37.2245 30.8136C38.0245 30.3469 38.9161 30.1136 39.8995 30.1136C40.7995 30.1136 41.6245 30.2969 42.3745 30.6636C43.1245 31.0136 43.7745 31.5052 44.3245 32.1386C44.8745 32.7719 45.2995 33.4969 45.5995 34.3136C45.9161 35.1136 46.0745 35.9636 46.0745 36.8636C46.0745 38.1136 45.8245 39.2552 45.3245 40.2886C44.8411 41.3219 44.1578 42.1469 43.2745 42.7636C42.4078 43.3636 41.4078 43.6636 40.2745 43.6636ZM39.3745 41.3136C39.9578 41.3136 40.4828 41.1886 40.9495 40.9386C41.4328 40.6886 41.8411 40.3552 42.1745 39.9386C42.5245 39.5219 42.7911 39.0469 42.9745 38.5136C43.1578 37.9802 43.2495 37.4302 43.2495 36.8636C43.2495 36.2636 43.1495 35.6969 42.9495 35.1636C42.7495 34.6302 42.4578 34.1636 42.0745 33.7636C41.7078 33.3636 41.2745 33.0469 40.7745 32.8136C40.2911 32.5802 39.7578 32.4636 39.1745 32.4636C38.8245 32.4636 38.4578 32.5302 38.0745 32.6636C37.6911 32.7969 37.3328 32.9802 36.9995 33.2136C36.6661 33.4469 36.3745 33.7219 36.1245 34.0386C35.8745 34.3552 35.6995 34.6886 35.5995 35.0386V38.4636C35.8328 38.9969 36.1411 39.4802 36.5245 39.9136C36.9078 40.3302 37.3495 40.6719 37.8495 40.9386C38.3495 41.1886 38.8578 41.3136 39.3745 41.3136ZM48.5477 43.4136V30.3386H51.3977L55.8977 38.4136L60.4227 30.3386H63.2227V43.4136H60.5977V34.2136L56.7477 41.0886H55.0227L51.1477 34.2136V43.4136H48.5477ZM65.5665 39.5886C65.5665 38.7552 65.7998 38.0302 66.2665 37.4136C66.7498 36.7802 67.4081 36.2969 68.2415 35.9636C69.0748 35.6136 70.0415 35.4386 71.1415 35.4386C71.7248 35.4386 72.3165 35.4802 72.9165 35.5636C73.5331 35.6469 74.0748 35.7802 74.5415 35.9636V35.1386C74.5415 34.2219 74.2665 33.5052 73.7165 32.9886C73.1665 32.4719 72.3748 32.2136 71.3415 32.2136C70.6081 32.2136 69.9165 32.3469 69.2665 32.6136C68.6165 32.8636 67.9248 33.2219 67.1915 33.6886L66.2665 31.8386C67.1331 31.2552 67.9998 30.8219 68.8665 30.5386C69.7498 30.2552 70.6748 30.1136 71.6415 30.1136C73.3915 30.1136 74.7665 30.5802 75.7665 31.5136C76.7831 32.4302 77.2915 33.7386 77.2915 35.4386V40.3136C77.2915 40.6302 77.3415 40.8552 77.4415 40.9886C77.5581 41.1219 77.7498 41.1969 78.0165 41.2136V43.4136C77.7665 43.4636 77.5415 43.4969 77.3415 43.5136C77.1415 43.5302 76.9748 43.5386 76.8415 43.5386C76.2581 43.5386 75.8165 43.3969 75.5165 43.1136C75.2165 42.8302 75.0415 42.4969 74.9915 42.1136L74.9165 41.3636C74.3498 42.0969 73.6248 42.6636 72.7415 43.0636C71.8581 43.4636 70.9665 43.6636 70.0665 43.6636C69.1998 43.6636 68.4248 43.4886 67.7415 43.1386C67.0581 42.7719 66.5248 42.2802 66.1415 41.6636C65.7581 41.0469 65.5665 40.3552 65.5665 39.5886ZM73.8915 40.3886C74.0915 40.1719 74.2498 39.9552 74.3665 39.7386C74.4831 39.5219 74.5415 39.3302 74.5415 39.1636V37.6636C74.0748 37.4802 73.5831 37.3469 73.0665 37.2636C72.5498 37.1636 72.0415 37.1136 71.5415 37.1136C70.5415 37.1136 69.7248 37.3136 69.0915 37.7136C68.4748 38.1136 68.1665 38.6636 68.1665 39.3636C68.1665 39.7469 68.2665 40.1136 68.4665 40.4636C68.6831 40.8136 68.9831 41.0969 69.3665 41.3136C69.7665 41.5302 70.2581 41.6386 70.8415 41.6386C71.4415 41.6386 72.0165 41.5219 72.5665 41.2886C73.1165 41.0552 73.5581 40.7552 73.8915 40.3886ZM80.6278 43.4136V30.3386H83.3778V35.5386H89.4528V30.3386H92.2028V43.4136H89.4528V37.9136H83.3778V43.4136H80.6278Z" fill="white"/>
</g>
<defs>
<filter id="filter0_d_1318_10466" x="2.83191" y="75.8905" width="17.3008" height="18.3499" filterUnits="userSpaceOnUse" color-interpolation-filters="sRGB">
<feFlood flood-opacity="0" result="BackgroundImageFix"/>
<feColorMatrix in="SourceAlpha" type="matrix" values="0 0 0 0 0 0 0 0 0 0 0 0 0 0 0 0 0 0 127 0" result="hardAlpha"/>
<feOffset dx="-0.677963"/>
<feGaussianBlur stdDeviation="2.37287"/>
<feComposite in2="hardAlpha" operator="out"/>
<feColorMatrix type="matrix" values="0 0 0 0 0.960784 0 0 0 0 0.658824 0 0 0 0 0.211765 0 0 0 0.9 0"/>
<feBlend mode="normal" in2="BackgroundImageFix" result="effect1_dropShadow_1318_10466"/>
<feBlend mode="normal" in="SourceGraphic" in2="effect1_dropShadow_1318_10466" result="shape"/>
</filter>
<filter id="filter1_d_1318_10466" x="17.5746" y="76.3666" width="17.7061" height="19.0506" filterUnits="userSpaceOnUse" color-interpolation-filters="sRGB">
<feFlood flood-opacity="0" result="BackgroundImageFix"/>
<feColorMatrix in="SourceAlpha" type="matrix" values="0 0 0 0 0 0 0 0 0 0 0 0 0 0 0 0 0 0 127 0" result="hardAlpha"/>
<feOffset dx="-0.677963"/>
<feGaussianBlur stdDeviation="2.37287"/>
<feComposite in2="hardAlpha" operator="out"/>
<feColorMatrix type="matrix" values="0 0 0 0 0.960784 0 0 0 0 0.658824 0 0 0 0 0.211765 0 0 0 0.9 0"/>
<feBlend mode="normal" in2="BackgroundImageFix" result="effect1_dropShadow_1318_10466"/>
<feBlend mode="normal" in="SourceGraphic" in2="effect1_dropShadow_1318_10466" result="shape"/>
</filter>
<filter id="filter2_d_1318_10466" x="26.3568" y="77.1898" width="18.961" height="19.7972" filterUnits="userSpaceOnUse" color-interpolation-filters="sRGB">
<feFlood flood-opacity="0" result="BackgroundImageFix"/>
<feColorMatrix in="SourceAlpha" type="matrix" values="0 0 0 0 0 0 0 0 0 0 0 0 0 0 0 0 0 0 127 0" result="hardAlpha"/>
<feOffset dx="-0.677963"/>
<feGaussianBlur stdDeviation="2.37287"/>
<feComposite in2="hardAlpha" operator="out"/>
<feColorMatrix type="matrix" values="0 0 0 0 0.960784 0 0 0 0 0.658824 0 0 0 0 0.211765 0 0 0 0.9 0"/>
<feBlend mode="normal" in2="BackgroundImageFix" result="effect1_dropShadow_1318_10466"/>
<feBlend mode="normal" in="SourceGraphic" in2="effect1_dropShadow_1318_10466" result="shape"/>
</filter>
<filter id="filter3_d_1318_10466" x="37.5878" y="79.1883" width="18.4463" height="19.6238" filterUnits="userSpaceOnUse" color-interpolation-filters="sRGB">
<feFlood flood-opacity="0" result="BackgroundImageFix"/>
<feColorMatrix in="SourceAlpha" type="matrix" values="0 0 0 0 0 0 0 0 0 0 0 0 0 0 0 0 0 0 127 0" result="hardAlpha"/>
<feOffset dx="-0.677963"/>
<feGaussianBlur stdDeviation="2.37287"/>
<feComposite in2="hardAlpha" operator="out"/>
<feColorMatrix type="matrix" values="0 0 0 0 0.960784 0 0 0 0 0.658824 0 0 0 0 0.211765 0 0 0 0.9 0"/>
<feBlend mode="normal" in2="BackgroundImageFix" result="effect1_dropShadow_1318_10466"/>
<feBlend mode="normal" in="SourceGraphic" in2="effect1_dropShadow_1318_10466" result="shape"/>
</filter>
<filter id="filter4_d_1318_10466" x="47.537" y="81.1688" width="23.062" height="21.3074" filterUnits="userSpaceOnUse" color-interpolation-filters="sRGB">
<feFlood flood-opacity="0" result="BackgroundImageFix"/>
<feColorMatrix in="SourceAlpha" type="matrix" values="0 0 0 0 0 0 0 0 0 0 0 0 0 0 0 0 0 0 127 0" result="hardAlpha"/>
<feOffset dx="-0.677963"/>
<feGaussianBlur stdDeviation="2.37287"/>
<feComposite in2="hardAlpha" operator="out"/>
<feColorMatrix type="matrix" values="0 0 0 0 0.960784 0 0 0 0 0.658824 0 0 0 0 0.211765 0 0 0 0.9 0"/>
<feBlend mode="normal" in2="BackgroundImageFix" result="effect1_dropShadow_1318_10466"/>
<feBlend mode="normal" in="SourceGraphic" in2="effect1_dropShadow_1318_10466" result="shape"/>
</filter>
<filter id="filter5_d_1318_10466" x="61.4142" y="85.1678" width="23.1956" height="21.5701" filterUnits="userSpaceOnUse" color-interpolation-filters="sRGB">
<feFlood flood-opacity="0" result="BackgroundImageFix"/>
<feColorMatrix in="SourceAlpha" type="matrix" values="0 0 0 0 0 0 0 0 0 0 0 0 0 0 0 0 0 0 127 0" result="hardAlpha"/>
<feOffset dx="-0.677963"/>
<feGaussianBlur stdDeviation="2.37287"/>
<feComposite in2="hardAlpha" operator="out"/>
<feColorMatrix type="matrix" values="0 0 0 0 0.960784 0 0 0 0 0.658824 0 0 0 0 0.211765 0 0 0 0.9 0"/>
<feBlend mode="normal" in2="BackgroundImageFix" result="effect1_dropShadow_1318_10466"/>
<feBlend mode="normal" in="SourceGraphic" in2="effect1_dropShadow_1318_10466" result="shape"/>
</filter>
<filter id="filter6_d_1318_10466" x="74.8583" y="89.9764" width="21.3055" height="21.4305" filterUnits="userSpaceOnUse" color-interpolation-filters="sRGB">
<feFlood flood-opacity="0" result="BackgroundImageFix"/>
<feColorMatrix in="SourceAlpha" type="matrix" values="0 0 0 0 0 0 0 0 0 0 0 0 0 0 0 0 0 0 127 0" result="hardAlpha"/>
<feOffset dx="-0.677963"/>
<feGaussianBlur stdDeviation="2.37287"/>
<feComposite in2="hardAlpha" operator="out"/>
<feColorMatrix type="matrix" values="0 0 0 0 0.960784 0 0 0 0 0.658824 0 0 0 0 0.211765 0 0 0 0.9 0"/>
<feBlend mode="normal" in2="BackgroundImageFix" result="effect1_dropShadow_1318_10466"/>
<feBlend mode="normal" in="SourceGraphic" in2="effect1_dropShadow_1318_10466" result="shape"/>
</filter>
<filter id="filter7_d_1318_10466" x="84.9381" y="94.7084" width="20.2881" height="20.8308" filterUnits="userSpaceOnUse" color-interpolation-filters="sRGB">
<feFlood flood-opacity="0" result="BackgroundImageFix"/>
<feColorMatrix in="SourceAlpha" type="matrix" values="0 0 0 0 0 0 0 0 0 0 0 0 0 0 0 0 0 0 127 0" result="hardAlpha"/>
<feOffset dx="-0.677963"/>
<feGaussianBlur stdDeviation="2.37287"/>
<feComposite in2="hardAlpha" operator="out"/>
<feColorMatrix type="matrix" values="0 0 0 0 0.960784 0 0 0 0 0.658824 0 0 0 0 0.211765 0 0 0 0.9 0"/>
<feBlend mode="normal" in2="BackgroundImageFix" result="effect1_dropShadow_1318_10466"/>
<feBlend mode="normal" in="SourceGraphic" in2="effect1_dropShadow_1318_10466" result="shape"/>
</filter>
<filter id="filter8_d_1318_10466" x="0.437744" y="0.263672" width="118.868" height="51.4751" filterUnits="userSpaceOnUse" color-interpolation-filters="sRGB">
<feFlood flood-opacity="0" result="BackgroundImageFix"/>
<feColorMatrix in="SourceAlpha" type="matrix" values="0 0 0 0 0 0 0 0 0 0 0 0 0 0 0 0 0 0 127 0" result="hardAlpha"/>
<feOffset dy="-1"/>
<feGaussianBlur stdDeviation="2"/>
<feComposite in2="hardAlpha" operator="out"/>
<feColorMatrix type="matrix" values="0 0 0 0 0.960784 0 0 0 0 0.658824 0 0 0 0 0.211765 0 0 0 0.5 0"/>
<feBlend mode="normal" in2="BackgroundImageFix" result="effect1_dropShadow_1318_10466"/>
<feBlend mode="normal" in="SourceGraphic" in2="effect1_dropShadow_1318_10466" result="shape"/>
</filter>
</defs>
</svg>
