<svg width="92" height="71" viewBox="0 0 92 71" fill="none" xmlns="http://www.w3.org/2000/svg">
<g opacity="0.2">
<path opacity="0.06" d="M9.48968 24.7953L16.0897 34.6354L16.5697 35.7154L17.1697 34.6354L23.7097 24.7953H32.1697L21.2497 40.4554L32.3497 56.2354H23.8897L17.1097 46.4554L16.5697 45.4354L16.0897 46.4554L9.36968 56.2354H0.909678L12.0097 40.6354L1.08968 24.7953H9.48968ZM34.8247 56.2354C34.8247 54.4354 34.9647 52.8154 35.2447 51.3754C35.5247 49.9354 36.0047 48.5954 36.6847 47.3554C37.4047 46.1154 38.3647 44.9554 39.5647 43.8754C40.8047 42.7554 42.3647 41.6754 44.2447 40.6354C45.8847 39.7554 47.3247 38.9954 48.5647 38.3554C49.8047 37.6754 50.8447 37.0553 51.6847 36.4954C52.5647 35.9354 53.2247 35.3754 53.6647 34.8154C54.1047 34.2154 54.3247 33.5354 54.3247 32.7753C54.3247 31.9754 54.1047 31.2554 53.6647 30.6154C53.2247 29.9353 52.6047 29.3953 51.8047 28.9954C51.0047 28.5954 50.0047 28.3954 48.8047 28.3954C47.8447 28.3954 46.9447 28.5154 46.1047 28.7553C45.3047 28.9954 44.5447 29.3354 43.8247 29.7754C43.1447 30.2154 42.5047 30.7154 41.9047 31.2754C41.3047 31.7954 40.7647 32.3554 40.2847 32.9554L35.1847 27.0753C35.7447 26.5154 36.4847 25.9154 37.4047 25.2753C38.3647 24.5953 39.4847 23.9753 40.7647 23.4153C42.0847 22.8153 43.5247 22.3353 45.0847 21.9753C46.6847 21.5753 48.3847 21.3753 50.1847 21.3753C52.9047 21.3753 55.2247 21.8154 57.1447 22.6954C59.0647 23.5353 60.5247 24.7153 61.5247 26.2354C62.5647 27.7554 63.0847 29.5354 63.0847 31.5754C63.0847 32.9754 62.8247 34.2154 62.3047 35.2954C61.7847 36.3754 61.1247 37.3353 60.3247 38.1753C59.5247 38.9754 58.6447 39.6954 57.6847 40.3354C56.7647 40.9754 55.8647 41.5354 54.9847 42.0154C53.7447 42.6554 52.6247 43.2554 51.6247 43.8154C50.6247 44.3354 49.7447 44.8754 48.9847 45.4354C48.2247 45.9554 47.5447 46.4954 46.9447 47.0554C46.3847 47.6154 45.8847 48.2554 45.4447 48.9754H63.7447V56.2354H34.8247Z" fill="white"/>
</g>
<g opacity="0.4">
<path opacity="0.12" d="M17.8534 24.7953L24.4534 34.6354L24.9334 35.7154L25.5334 34.6354L32.0734 24.7953H40.5334L29.6134 40.4554L40.7134 56.2354H32.2534L25.4734 46.4554L24.9334 45.4354L24.4534 46.4554L17.7334 56.2354H9.27345L20.3734 40.6354L9.45345 24.7953H17.8534ZM43.1884 56.2354C43.1884 54.4354 43.3284 52.8154 43.6084 51.3754C43.8884 49.9354 44.3684 48.5954 45.0484 47.3554C45.7684 46.1154 46.7284 44.9554 47.9284 43.8754C49.1684 42.7554 50.7284 41.6754 52.6084 40.6354C54.2484 39.7554 55.6884 38.9954 56.9284 38.3554C58.1684 37.6754 59.2084 37.0553 60.0484 36.4954C60.9284 35.9354 61.5884 35.3754 62.0284 34.8154C62.4684 34.2154 62.6884 33.5354 62.6884 32.7753C62.6884 31.9754 62.4684 31.2554 62.0284 30.6154C61.5884 29.9353 60.9684 29.3953 60.1684 28.9954C59.3684 28.5954 58.3684 28.3954 57.1684 28.3954C56.2084 28.3954 55.3084 28.5154 54.4684 28.7553C53.6684 28.9954 52.9084 29.3354 52.1884 29.7754C51.5084 30.2154 50.8684 30.7154 50.2684 31.2754C49.6684 31.7954 49.1284 32.3554 48.6484 32.9554L43.5484 27.0753C44.1084 26.5154 44.8484 25.9154 45.7684 25.2753C46.7284 24.5953 47.8484 23.9753 49.1284 23.4153C50.4484 22.8153 51.8884 22.3353 53.4484 21.9753C55.0484 21.5753 56.7484 21.3753 58.5484 21.3753C61.2684 21.3753 63.5884 21.8154 65.5084 22.6954C67.4284 23.5353 68.8884 24.7153 69.8884 26.2354C70.9284 27.7554 71.4484 29.5354 71.4484 31.5754C71.4484 32.9754 71.1884 34.2154 70.6684 35.2954C70.1484 36.3754 69.4884 37.3353 68.6884 38.1753C67.8884 38.9754 67.0084 39.6954 66.0484 40.3354C65.1284 40.9754 64.2284 41.5354 63.3484 42.0154C62.1084 42.6554 60.9884 43.2554 59.9884 43.8154C58.9884 44.3354 58.1084 44.8754 57.3484 45.4354C56.5884 45.9554 55.9084 46.4954 55.3084 47.0554C54.7484 47.6154 54.2484 48.2554 53.8084 48.9754H72.1084V56.2354H43.1884Z" fill="white"/>
</g>
<g opacity="0.5">
<path opacity="0.24" d="M26.1867 24.7953L32.7867 34.6354L33.2667 35.7154L33.8667 34.6354L40.4067 24.7953H48.8667L37.9467 40.4554L49.0467 56.2354H40.5867L33.8067 46.4554L33.2667 45.4354L32.7867 46.4554L26.0667 56.2354H17.6067L28.7067 40.6354L17.7867 24.7953H26.1867ZM51.5217 56.2354C51.5217 54.4354 51.6617 52.8154 51.9417 51.3754C52.2217 49.9354 52.7017 48.5954 53.3817 47.3554C54.1017 46.1154 55.0617 44.9554 56.2617 43.8754C57.5017 42.7554 59.0617 41.6754 60.9417 40.6354C62.5817 39.7554 64.0217 38.9954 65.2617 38.3554C66.5017 37.6754 67.5417 37.0553 68.3817 36.4954C69.2617 35.9354 69.9217 35.3754 70.3617 34.8154C70.8017 34.2154 71.0217 33.5354 71.0217 32.7753C71.0217 31.9754 70.8017 31.2554 70.3617 30.6154C69.9217 29.9353 69.3017 29.3953 68.5017 28.9954C67.7017 28.5954 66.7017 28.3954 65.5017 28.3954C64.5417 28.3954 63.6417 28.5154 62.8017 28.7553C62.0017 28.9954 61.2417 29.3354 60.5217 29.7754C59.8417 30.2154 59.2017 30.7154 58.6017 31.2754C58.0017 31.7954 57.4617 32.3554 56.9817 32.9554L51.8817 27.0753C52.4417 26.5154 53.1817 25.9154 54.1017 25.2753C55.0617 24.5953 56.1817 23.9753 57.4617 23.4153C58.7817 22.8153 60.2217 22.3353 61.7817 21.9753C63.3817 21.5753 65.0817 21.3753 66.8817 21.3753C69.6017 21.3753 71.9217 21.8154 73.8417 22.6954C75.7617 23.5353 77.2217 24.7153 78.2217 26.2354C79.2617 27.7554 79.7817 29.5354 79.7817 31.5754C79.7817 32.9754 79.5217 34.2154 79.0017 35.2954C78.4817 36.3754 77.8217 37.3353 77.0217 38.1753C76.2217 38.9754 75.3417 39.6954 74.3817 40.3354C73.4617 40.9754 72.5617 41.5354 71.6817 42.0154C70.4417 42.6554 69.3217 43.2554 68.3217 43.8154C67.3217 44.3354 66.4417 44.8754 65.6817 45.4354C64.9217 45.9554 64.2417 46.4954 63.6417 47.0554C63.0817 47.6154 62.5817 48.2554 62.1417 48.9754H80.4417V56.2354H51.5217Z" fill="white"/>
</g>
<path d="M34.2175 24.7953L40.8175 34.6354L41.2975 35.7154L41.8975 34.6354L48.4375 24.7953H56.8975L45.9775 40.4554L57.0775 56.2354H48.6175L41.8375 46.4554L41.2975 45.4354L40.8175 46.4554L34.0975 56.2354H25.6375L36.7375 40.6354L25.8175 24.7953H34.2175ZM59.5525 56.2354C59.5525 54.4354 59.6925 52.8154 59.9725 51.3754C60.2525 49.9354 60.7325 48.5954 61.4125 47.3554C62.1325 46.1154 63.0925 44.9554 64.2925 43.8754C65.5325 42.7554 67.0925 41.6754 68.9725 40.6354C70.6125 39.7554 72.0525 38.9954 73.2925 38.3554C74.5325 37.6754 75.5725 37.0553 76.4125 36.4954C77.2925 35.9354 77.9525 35.3754 78.3925 34.8154C78.8325 34.2154 79.0525 33.5354 79.0525 32.7753C79.0525 31.9754 78.8325 31.2554 78.3925 30.6154C77.9525 29.9353 77.3325 29.3953 76.5325 28.9954C75.7325 28.5954 74.7325 28.3954 73.5325 28.3954C72.5725 28.3954 71.6725 28.5154 70.8325 28.7553C70.0325 28.9954 69.2725 29.3354 68.5525 29.7754C67.8725 30.2154 67.2325 30.7154 66.6325 31.2754C66.0325 31.7954 65.4925 32.3554 65.0125 32.9554L59.9125 27.0753C60.4725 26.5154 61.2125 25.9154 62.1325 25.2753C63.0925 24.5953 64.2125 23.9753 65.4925 23.4153C66.8125 22.8153 68.2525 22.3353 69.8125 21.9753C71.4125 21.5753 73.1125 21.3753 74.9125 21.3753C77.6325 21.3753 79.9525 21.8154 81.8725 22.6954C83.7925 23.5353 85.2525 24.7153 86.2525 26.2354C87.2925 27.7554 87.8125 29.5354 87.8125 31.5754C87.8125 32.9754 87.5525 34.2154 87.0325 35.2954C86.5125 36.3754 85.8525 37.3353 85.0525 38.1753C84.2525 38.9754 83.3725 39.6954 82.4125 40.3354C81.4925 40.9754 80.5925 41.5354 79.7125 42.0154C78.4725 42.6554 77.3525 43.2554 76.3525 43.8154C75.3525 44.3354 74.4725 44.8754 73.7125 45.4354C72.9525 45.9554 72.2725 46.4954 71.6725 47.0554C71.1125 47.6154 70.6125 48.2554 70.1725 48.9754H88.4725V56.2354H59.5525Z" fill="white"/>
</svg>
